<svg width="174" height="175" viewBox="0 0 174 175" fill="none" xmlns="http://www.w3.org/2000/svg">
<path d="M153 93.6798H119.307C118.64 96.8464 118 109.799 112 118.999C106 128.199 92.5 134.832 87.5 136.999V170.999H108.5C105.667 164.999 103.1 152.999 115.5 152.999C127.9 152.999 124.667 164.999 121.5 170.999H151.5V140.999C158 143.332 171 145.299 171 134.499C171.5 129.999 169.5 126.999 164 124.999C159.6 123.399 153.833 125.665 151.5 126.999L153 93.6798Z" fill="#BDBDBD"/>
<path d="M101.841 96.5442C101.841 109.805 91.0826 120.555 77.8112 120.555C64.5399 120.555 53.7813 109.805 53.7813 96.5442C53.7813 83.2835 64.5399 72.5335 77.8112 72.5335C91.0826 72.5335 101.841 83.2835 101.841 96.5442Z" fill="white"/>
<path fill-rule="evenodd" clip-rule="evenodd" d="M37.5267 0.76127C33.9404 1.70276 30.7905 4.2875 29.1763 7.61246C28.404 9.20325 28.2333 10.1533 28.2344 12.8581C28.2352 15.0706 28.4472 16.642 28.8753 17.618L29.515 19.0752H1.909L0 20.9826V36.4518C0 53.7484 0.00933313 53.8122 2.74625 55.279C4.62064 56.2834 5.49328 56.1777 8.5518 54.5769C10.8617 53.368 11.51 53.194 13.0581 53.3684C16.4238 53.7477 18.4717 56.0468 18.4717 59.4475C18.4717 61.313 18.2858 61.927 17.3509 63.1517C15.2164 65.9478 11.6407 66.4293 8.48841 64.345C5.42484 62.319 2.23566 62.8859 0.710479 65.7271C0.0563871 66.9457 0 68.2804 0 82.5202V97.9894L1.909 99.8968H26.0902L27.0445 98.9429C28.3075 97.6812 28.3075 95.8954 27.0445 94.6337L26.0902 93.6798H6.22204V70.4055L7.68033 71.0447C8.65369 71.4713 10.2372 71.6854 12.4441 71.6889C15.2693 71.6936 16.0381 71.5444 17.7355 70.6631C20.6661 69.1415 21.8864 67.9641 23.3579 65.2372C24.5646 63.0013 24.6793 62.5024 24.6793 59.486C24.6793 56.4696 24.5646 55.9706 23.3579 53.7348C21.8864 51.0079 20.6661 49.8305 17.7355 48.3089C16.0381 47.4276 15.2693 47.2784 12.4441 47.2831C10.2372 47.2866 8.65369 47.5007 7.68033 47.9273L6.22204 48.5665V25.2922H19.5473C34.4549 25.2922 34.7897 25.237 36.2329 22.5482C37.2381 20.6753 37.1323 19.8033 35.5302 16.7473C34.3204 14.4392 34.1461 13.7914 34.3208 12.2446C34.7019 8.8652 36.9993 6.83533 40.4432 6.83533C43.8871 6.83533 46.1846 8.8652 46.5657 12.2446C46.7403 13.7914 46.5661 14.4392 45.3563 16.7473C43.7541 19.8033 43.6484 20.6753 44.6536 22.5482C46.0267 25.1069 46.8803 25.2922 57.2739 25.2922H66.5334L67.4877 24.3383C68.0897 23.7372 68.4424 22.9406 68.4424 22.1837C68.4424 21.4268 68.0897 20.6302 67.4877 20.0291C66.5396 19.0814 66.4828 19.0752 58.9522 19.0752H51.3715L52.0112 17.618C52.4347 16.6524 52.6552 15.0465 52.6645 12.8581C52.6773 9.82845 52.5692 9.35285 51.3571 7.10694C49.8852 4.37959 48.64 3.17776 45.7942 1.73657C43.7172 0.685111 39.646 0.204455 37.5267 0.76127ZM112.191 0.76127C108.605 1.70276 105.455 4.2875 103.841 7.61246C103.068 9.20325 102.898 10.1533 102.899 12.8581C102.9 15.0706 103.112 16.642 103.54 17.618L104.179 19.0752H76.5734L74.6644 20.9826V45.1444L75.6191 46.098C76.8818 47.36 78.6691 47.36 79.9318 46.098L80.8865 45.1444V25.2922H94.2117C109.119 25.2922 109.454 25.237 110.897 22.5482C111.903 20.6753 111.797 19.8033 110.195 16.7473C108.985 14.4392 108.811 13.7914 108.985 12.2446C109.366 8.8652 111.664 6.83533 115.108 6.83533C118.552 6.83533 120.849 8.8652 121.23 12.2446C121.405 13.7914 121.231 14.4392 120.021 16.7473C118.419 19.8033 118.313 20.6753 119.318 22.5482C120.761 25.237 121.096 25.2922 136.004 25.2922H149.329V38.6068C149.329 53.5025 149.384 53.837 152.075 55.279C153.95 56.2834 154.822 56.1777 157.881 54.5769C160.191 53.368 160.839 53.194 162.387 53.3684C165.753 53.7477 167.801 56.0468 167.801 59.4475C167.801 61.313 167.615 61.927 166.68 63.1517C164.545 65.9478 160.97 66.4293 157.817 64.345C154.754 62.319 151.565 62.8859 150.039 65.7271C149.408 66.9029 149.329 68.0846 149.329 76.3031V85.5553L150.284 86.5088C150.885 87.1103 151.682 87.4627 152.44 87.4627C153.197 87.4627 153.995 87.1103 154.596 86.5088C155.545 85.5615 155.551 85.5047 155.551 77.9802V70.4055L157.009 71.0447C157.976 71.4678 159.583 71.6881 161.773 71.6974C164.805 71.7103 165.281 71.6022 167.529 70.3911C170.258 68.9208 171.436 67.7014 172.959 64.7732C173.836 63.0868 173.992 62.2926 174 59.486C174.007 56.4614 173.897 55.9769 172.687 53.7348C171.215 51.0079 169.995 49.8305 167.064 48.3089C165.367 47.4276 164.598 47.2784 161.773 47.2831C159.566 47.2866 157.983 47.5007 157.009 47.9273L155.551 48.5665V20.9826L153.642 19.0752H126.036L126.676 17.618C127.103 16.6455 127.317 15.0632 127.32 12.8581C127.325 10.0352 127.176 9.26697 126.294 7.57089C124.778 4.65703 123.591 3.421 120.961 2.02061C118.454 0.685499 114.592 0.130627 112.191 0.76127ZM70.7757 53.8666C57.1191 56.0239 45.1195 64.9306 38.7388 77.646C30.4724 94.1189 33.8366 114.269 47.0588 127.48C56.6423 137.056 70.3926 141.755 83.4142 139.906C91.2691 138.79 99.1182 135.398 105.189 130.498C115.163 122.444 121.184 109.822 121.259 97.1159C121.265 96.2295 121.241 95.3426 121.188 94.4569C120.928 90.1349 120.146 85.8183 119.307 84.0686C118.338 82.0481 115.327 81.9004 114.073 83.8118C113.456 84.7533 113.461 85.0183 114.165 88.3712C115.141 93.015 115.161 101.237 114.205 105.085C112.455 112.139 109.352 117.654 104.219 122.833C98.8911 128.21 93.3119 131.396 86.0831 133.19C82.2689 134.136 73.5169 134.136 69.609 133.19C55.459 129.762 44.8796 119.245 41.3415 105.089C40.418 101.394 40.418 92.183 41.3415 88.4874C43.1152 81.3898 46.332 75.7113 51.5068 70.5407C56.68 65.3716 62.3538 62.162 69.4679 60.3812C73.1253 59.4658 82.3502 59.4716 86.0831 60.3917C89.8548 61.3212 93.943 63.0274 97.3492 65.0934C100.671 67.1081 101.899 67.2791 103.264 65.9148C104.956 64.2246 104.523 62.3311 102.057 60.6354C93.4573 54.7237 81.5962 52.1569 70.7757 53.8666ZM94.2176 85.2203L74.6707 104.737L65.9952 96.1002C58.2597 88.3984 57.1832 87.4627 56.0582 87.4627C54.3616 87.4627 52.8873 88.9412 52.8873 90.6428C52.8873 91.7886 53.9011 92.9279 63.1035 102.123C72.5388 111.551 73.4228 112.331 74.6687 112.331C75.9322 112.331 77.3539 110.995 97.1182 91.2474C116.429 71.952 118.219 70.0554 118.219 68.887C118.219 67.1757 116.747 65.703 115.037 65.703C113.876 65.703 112.053 67.4116 94.2176 85.2203ZM128.506 94.6337C127.904 95.2348 127.552 96.0314 127.552 96.7883C127.552 97.5452 127.904 98.3418 128.506 98.9429L129.461 99.8968H149.329V113.211C149.329 128.107 149.384 128.442 152.075 129.884C153.95 130.888 154.822 130.782 157.881 129.181C160.191 127.973 160.839 127.799 162.387 127.973C165.753 128.352 167.801 130.651 167.801 134.052C167.801 135.918 167.615 136.532 166.68 137.756C164.487 140.629 161.656 141.008 157.77 138.948C154.852 137.4 153.943 137.297 152.075 138.298C149.384 139.74 149.329 140.074 149.329 154.97V168.284H126.036L126.676 166.827C127.099 165.862 127.32 164.256 127.329 162.067C127.342 159.038 127.234 158.562 126.022 156.316C124.55 153.589 123.33 152.412 120.399 150.89C118.703 150.009 117.931 149.86 115.108 149.863C111.208 149.868 108.881 150.785 106.349 153.315C103.812 155.85 102.897 158.171 102.899 162.067C102.9 164.28 103.112 165.851 103.54 166.827L104.179 168.284H96.5987C89.0681 168.284 89.0113 168.291 88.0632 169.238C86.8001 170.5 86.8001 172.286 88.0632 173.548L89.0175 174.501H98.2771C108.671 174.501 109.524 174.316 110.897 171.757C111.903 169.885 111.797 169.013 110.195 165.957C108.985 163.648 108.811 163.001 108.985 161.454C109.366 158.074 111.664 156.045 115.108 156.045C118.552 156.045 120.849 158.074 121.23 161.454C121.405 163.001 121.231 163.648 120.021 165.957C118.419 169.013 118.313 169.885 119.318 171.757C120.786 174.492 120.85 174.501 138.16 174.501H153.642L155.551 172.594V145.01L157.009 145.649C157.976 146.072 159.583 146.293 161.773 146.302C164.805 146.315 165.281 146.207 167.529 144.996C170.258 143.525 171.436 142.306 172.959 139.378C173.839 137.686 173.991 136.907 173.991 134.091C173.991 131.274 173.839 130.496 172.959 128.803C171.436 125.875 170.258 124.656 167.529 123.186C165.281 121.974 164.805 121.866 161.773 121.879C159.583 121.888 157.976 122.109 157.009 122.532L155.551 123.171V95.5873L153.642 93.6798H129.461L128.506 94.6337ZM0.954695 107.068L0 108.021V117.273C0 127.659 0.185495 128.512 2.74625 129.884C4.62064 130.888 5.49328 130.782 8.5518 129.181C10.8617 127.973 11.51 127.799 13.0581 127.973C16.4238 128.352 18.4717 130.651 18.4717 134.052C18.4717 135.918 18.2858 136.532 17.3509 137.756C15.1577 140.629 12.3266 141.008 8.44097 138.948C5.52284 137.4 4.61442 137.297 2.74625 138.298C0.00933313 139.764 0 139.828 0 157.125V172.594L1.909 174.501H17.3906C34.7011 174.501 34.7649 174.492 36.2329 171.757C37.2381 169.885 37.1323 169.013 35.5302 165.957C34.3204 163.648 34.1461 163.001 34.3208 161.454C34.7019 158.074 36.9993 156.045 40.4432 156.045C43.8871 156.045 46.1846 158.074 46.5657 161.454C46.7403 163.001 46.5661 163.648 45.3563 165.957C43.7541 169.013 43.6484 169.885 44.6536 171.757C46.1216 174.492 46.1854 174.501 63.4959 174.501H78.9775L80.8865 172.594V148.432L79.9318 147.479C79.3302 146.877 78.533 146.525 77.7755 146.525C77.0179 146.525 76.2207 146.877 75.6191 147.479L74.6644 148.432V168.284H51.3715L52.0112 166.827C52.4347 165.862 52.6552 164.256 52.6645 162.067C52.6773 159.038 52.5692 158.562 51.3571 156.316C49.8856 153.589 48.6653 152.412 45.7347 150.89C44.0384 150.009 43.2669 149.86 40.4432 149.863C36.5436 149.868 34.2169 150.785 31.6842 153.315C29.1479 155.85 28.2329 158.171 28.2344 162.067C28.2352 164.28 28.4472 165.851 28.8753 166.827L29.515 168.284H6.22204V145.01L7.68033 145.649C8.64669 146.072 10.2539 146.293 12.4441 146.302C15.4762 146.315 15.9521 146.207 18.1998 144.996C20.929 143.525 22.1073 142.306 23.6301 139.378C24.507 137.691 24.6634 136.897 24.6708 134.091C24.6785 131.066 24.5677 130.581 23.3579 128.339C21.8864 125.613 20.6661 124.435 17.7355 122.914C16.0381 122.032 15.2693 121.883 12.4441 121.888C10.2372 121.891 8.65369 122.105 7.68033 122.532L6.22204 123.171V115.596C6.22204 108.072 6.21581 108.015 5.26734 107.068C4.66575 106.466 3.86855 106.114 3.11102 106.114C2.35349 106.114 1.55629 106.466 0.954695 107.068Z" fill="#BDBDBD"/>
</svg>
