<svg width="174" height="175" viewBox="0 0 174 175" fill="none" xmlns="http://www.w3.org/2000/svg">
<path d="M118.002 16.0048H111.002L108.502 23.5078C108.502 24.1747 107.402 25.8087 103.001 27.0092C97.5013 28.5098 89.0015 37.5134 93.0015 50.5186C97.0015 63.5238 112.501 62.0232 121.001 64.5242C127.801 66.525 123.835 74.695 121.001 78.5298C115.835 78.6966 103.702 79.2301 96.5016 80.0304C89.3016 80.8308 93.5016 87.0333 96.5016 90.0345L108.502 91.0349V100.539H120.002V92.0353C120.002 88.0337 122.002 89.5343 127.502 87.0333C133.002 84.5322 135.502 78.0296 134.502 64.5242C133.502 51.0188 115.502 52.5194 106.502 50.5186C99.3016 48.918 104.168 39.1807 107.502 34.5122H132.002C137.202 34.5122 134.168 28.5098 132.002 25.5086H118.002V16.0048Z" fill="#BDBDBD"/>
<path d="M4.64703 113.284L28.4086 113.143L28.7468 170.279L4.98526 170.419L4.64703 113.284Z" fill="#BDBDBD"/>
<path fill-rule="evenodd" clip-rule="evenodd" d="M108.582 0.6276C87.2805 2.94694 69.1926 15.6772 60.0974 34.7497C56.685 41.9056 54.3765 51.7837 54.3765 59.2303C54.3765 60.9734 54.5076 61.4303 55.2108 62.1334C56.2898 63.2132 57.8769 63.237 58.9239 62.1895C59.6135 61.4997 59.7263 60.9663 59.9129 57.5148C60.9032 39.2001 70.641 23.0456 86.3955 13.5815C92.6184 9.84344 99.854 7.34629 107.324 6.35898C130.173 3.33928 152.775 15.4966 162.947 36.2772C164.89 40.2468 166.932 46.4528 167.758 50.8988C168.633 55.6126 168.635 64.8706 167.761 69.5977C163.799 91.0171 148.299 107.688 127.443 112.961C124.401 113.731 123.365 114.144 122.77 114.826C121.869 115.858 121.826 116.371 122.521 117.717C123.234 119.096 124.382 119.287 127.783 118.592C141.571 115.776 154.923 106.903 163.654 94.7562C166.14 91.2969 170.114 83.5236 171.466 79.4734C173.664 72.8921 173.995 70.4061 173.998 60.4716C174.002 50.3983 173.675 47.81 171.601 41.4647C170.162 37.0606 166.276 29.3954 163.554 25.5906C154.553 13.0117 140.775 4.23547 125.574 1.39833C121.923 0.717015 111.925 0.263481 108.582 0.6276ZM107.005 11.9401C106.241 12.5578 106.194 12.8363 106.033 17.7466L105.863 22.9041L104.015 23.5545C98.0175 25.6644 92.9035 30.9963 90.8563 37.273C89.6125 41.0863 89.5452 46.3325 90.6925 50.0488C92.6065 56.248 97.0136 61.2705 102.776 63.82C105.733 65.128 107.449 65.4234 113.4 65.6491C118.228 65.8324 119.012 65.9432 119.836 66.5589C121.619 67.8913 122.175 68.9775 122.175 71.1276C122.175 73.2773 121.619 74.3635 119.836 75.6962C118.943 76.3636 118.343 76.4054 107.283 76.5673C94.1552 76.7593 94.2136 76.7485 91.8102 79.4799C88.8417 82.8535 89.0167 87.106 92.2575 90.348C94.4729 92.5643 95.6325 92.8863 101.399 92.8863H106.033V97.4913C106.033 101.928 106.063 102.127 106.867 102.931C107.694 103.759 107.754 103.766 114.189 103.766C120.624 103.766 120.684 103.759 121.511 102.931C122.32 102.122 122.345 101.949 122.345 97.1408C122.345 92.719 122.409 92.1649 122.94 91.9979C133.969 88.5308 140.464 77.6586 138.151 66.5378C136.603 59.097 130.522 52.5351 123.025 50.2161C121.748 49.821 119.307 49.5684 115.318 49.4185C110.155 49.2244 109.372 49.1179 108.542 48.4978C106.759 47.1658 106.203 46.0792 106.203 43.9292C106.203 41.7795 106.759 40.6932 108.542 39.3605C109.435 38.6931 110.035 38.6513 121.095 38.4895C134.229 38.2974 134.164 38.3093 136.489 35.6663C139.538 32.2009 139.397 27.9861 136.12 24.7087C133.905 22.4924 132.745 22.1704 126.979 22.1704H122.345V17.5654C122.345 13.129 122.315 12.9294 121.511 12.1257C120.684 11.2982 120.621 11.2911 114.242 11.2911C108.417 11.2911 107.731 11.3526 107.005 11.9401ZM116.908 21.3358C116.908 25.7722 116.938 25.9718 117.742 26.7755C118.569 27.6033 118.629 27.6101 125.064 27.6101C131.499 27.6101 131.559 27.6169 132.386 28.4448C133.399 29.4576 133.475 30.9596 132.571 32.0771L131.922 32.8798L120.252 33.0505C108.684 33.2195 108.567 33.2283 106.882 34.0623C104.705 35.1403 102.67 37.1826 101.624 39.3394C100.481 41.6975 100.444 46.0891 101.549 48.3595C102.723 50.7709 104.104 52.2118 106.43 53.452C108.552 54.5835 108.649 54.6005 114.357 54.8361C120.899 55.1064 122.556 55.4939 125.61 57.4689C128.206 59.1474 129.955 61.173 131.386 64.158C135.925 73.6288 130.461 84.6863 120.049 87.1012C117.175 87.7679 116.908 88.3364 116.908 93.7822V98.326H111.47V93.721C111.47 89.2846 111.44 89.085 110.636 88.2813C109.809 87.4534 109.749 87.4466 103.314 87.4466C96.8787 87.4466 96.8192 87.4398 95.992 86.612C94.9793 85.5992 94.9028 84.0971 95.8068 82.9796L96.4559 82.1769L119.796 81.837L121.938 80.6752C124.324 79.3809 125.354 78.3131 126.683 75.7537C127.45 74.2782 127.586 73.5833 127.593 71.1276C127.6 68.4791 127.503 68.0582 126.441 66.0874C125.18 63.7466 123.725 62.3592 121.336 61.2165C120.031 60.5923 118.914 60.4417 114.019 60.2309C107.482 59.9494 105.814 59.5574 102.767 57.5879C100.171 55.9094 98.4226 53.8838 96.9919 50.8988C92.4529 41.4279 97.9169 30.3704 108.329 27.9555C111.203 27.2888 111.47 26.7204 111.47 21.2746V16.7308H116.908V21.3358ZM38.8983 31.1646C38.2132 31.8497 38.064 32.3358 38.064 33.8845V35.7696H36.1795C33.9118 35.7696 32.6265 36.7535 32.6265 38.4895C32.6265 40.2254 33.9118 41.2093 36.1795 41.2093H38.064V43.0945C38.064 45.3632 39.0475 46.649 40.7827 46.649C42.518 46.649 43.5015 45.3632 43.5015 43.0945V41.2093H45.3859C47.6537 41.2093 48.939 40.2254 48.939 38.4895C48.939 36.7535 47.6537 35.7696 45.3859 35.7696H43.5015V33.8845C43.5015 31.6158 42.518 30.33 40.7827 30.33C40.1207 30.33 39.424 30.6383 38.8983 31.1646ZM52.7639 66.2094C51.8878 66.8234 51.7338 67.3086 45.3726 89.4865C41.442 103.19 40.5547 105.919 39.5131 107.505C38.1584 109.569 35.3163 112.437 33.6807 113.389L32.6265 114.003V112.439C32.6265 111.231 32.4362 110.684 31.7921 110.04L30.9582 109.205H1.66976L0.00146484 110.874V172.813L1.66976 174.482H30.9582L31.7921 173.647C32.4032 173.036 32.6265 172.444 32.6265 171.437C32.6265 170.681 32.722 170.062 32.8385 170.062C32.9551 170.062 36.4725 171.06 40.6549 172.28L48.2593 174.499L97.7065 174.312L99.6447 173.36C102.077 172.165 104.435 169.594 105.193 167.312C106.242 164.153 105.709 159.699 104.017 157.498L103.376 156.664L104.922 155.302C107.225 153.275 108.411 150.533 108.411 147.239C108.412 144.987 108.265 144.355 107.303 142.441L106.194 140.237L107.686 138.939C109.931 136.985 111.13 134.194 111.13 130.92C111.13 128.67 110.984 128.035 110.025 126.13L108.92 123.933L110.515 122.509C111.413 121.706 112.526 120.236 113.064 119.14C113.874 117.491 114.017 116.781 114.008 114.475C113.998 112.042 113.875 111.528 112.842 109.605C111.597 107.285 110.169 105.913 107.742 104.703C106.207 103.938 106.146 103.935 87.2288 103.837L68.255 103.739L68.4562 102.477C69.6416 95.0445 70.7274 84.5741 70.5472 82.3105C69.8903 74.0579 65.2304 68.1106 57.9305 66.2084C55.3926 65.5471 53.7087 65.5475 52.7639 66.2094ZM58.5538 72.1499C60.9062 73.2562 62.4304 74.7463 63.5621 77.046C65.4938 80.9714 65.523 82.3768 63.9332 94.9813C63.1628 101.088 62.5327 106.388 62.5327 106.758C62.5327 107.127 62.825 107.791 63.1822 108.233L63.8316 109.035L84.5678 109.205C104.845 109.372 105.324 109.391 106.242 110.076C108.025 111.409 108.582 112.495 108.582 114.645C108.582 116.794 108.026 117.881 106.243 119.214C105.371 119.866 104.714 119.927 96.8022 120.085C88.371 120.253 88.2939 120.262 87.6502 121.057C86.8217 122.082 86.8217 123.527 87.6502 124.552C88.2861 125.338 88.4414 125.358 95.4428 125.524C103.261 125.71 103.467 125.764 105.162 128.035C106.145 129.352 106.145 132.577 105.162 133.893C103.428 136.216 103.423 136.217 94.0835 136.404C85.6523 136.572 85.5751 136.581 84.9315 137.376C84.1029 138.401 84.1029 139.846 84.9315 140.871C85.5673 141.657 85.7226 141.677 92.7241 141.843C100.542 142.029 100.748 142.083 102.443 144.354C103.426 145.671 103.426 148.896 102.443 150.212C100.71 152.535 100.704 152.536 91.3647 152.723C82.9335 152.891 82.8564 152.9 82.2127 153.695C81.3842 154.721 81.3842 156.165 82.2127 157.19C82.8486 157.977 83.0039 157.996 90.0053 158.162C96.5412 158.318 97.2294 158.392 98.0868 159.034C99.8693 160.367 100.425 161.453 100.425 163.602C100.425 165.752 99.869 166.839 98.0855 168.171C97.1614 168.861 96.7839 168.873 73.2147 168.964L49.2822 169.055L43.2483 167.328C39.9297 166.378 36.1823 165.297 34.9204 164.927L32.6265 164.253L32.6448 119.915L35.3323 118.643C38.6672 117.064 41.4634 114.532 43.9942 110.801L45.8834 108.015L50.9777 90.1665C53.7797 80.3495 56.1447 72.1264 56.233 71.8925C56.4539 71.3102 56.8651 71.3557 58.5538 72.1499ZM27.189 169.042H5.43896V114.645H27.189V169.042ZM139.492 131.799C138.807 132.484 138.658 132.97 138.658 134.519V136.404H136.773C134.505 136.404 133.22 137.388 133.22 139.124C133.22 140.86 134.505 141.843 136.773 141.843H138.658V143.729C138.658 145.997 139.641 147.283 141.376 147.283C143.112 147.283 144.095 145.997 144.095 143.729V141.843H145.98C148.247 141.843 149.533 140.86 149.533 139.124C149.533 137.388 148.247 136.404 145.98 136.404H144.095V134.519C144.095 132.25 143.112 130.964 141.376 130.964C140.714 130.964 140.018 131.272 139.492 131.799Z" fill="#BDBDBD"/>
</svg>
