<svg width="174" height="175" viewBox="0 0 174 175" fill="none" xmlns="http://www.w3.org/2000/svg">
<path d="M141.586 40.0336L133.581 32.0271L136.583 18.0157L162.098 5.50554L169.103 14.5129L154.594 40.0336H141.586Z" fill="#BDBDBD"/>
<path d="M77.0468 125.603L50.5307 99.0817C50.5307 97.2469 51.7314 92.4763 56.5344 88.0727C61.3373 83.6692 63.8721 86.2379 64.5392 88.0727C70.0426 92.7432 82.25 103.786 87.0529 110.591C91.8558 117.397 82.3834 123.435 77.0468 125.603Z" fill="#BDBDBD"/>
<path fill-rule="evenodd" clip-rule="evenodd" d="M29.4671 0.872818C24.6843 1.72176 18.4536 4.16825 17.4593 5.58825C17.177 5.99129 16.9461 6.92832 16.9461 7.67115C16.9461 8.98401 17.2039 9.27992 26.2751 18.3941C31.4061 23.5493 35.7672 28.1981 35.9665 28.7246C37.8191 33.6193 32.65 38.5327 28.0658 36.2348C27.4673 35.9348 22.8395 31.5728 17.782 26.5414C8.60367 17.4105 8.5836 17.3935 7.12173 17.3935C5.17664 17.3935 4.14663 18.5074 2.69563 22.1793C1.03789 26.3761 0.281277 29.7327 0.052423 33.9087C-0.715751 47.9397 7.00985 61.0483 19.8366 67.4779C26.2169 70.6764 34.0411 71.8604 40.7496 70.6424L43.3 70.1795L50.186 77.0302C53.9732 80.7981 57.0721 83.9592 57.0721 84.0547C57.0721 84.1503 56.3454 84.5996 55.4568 85.0533C54.2833 85.6529 47.3976 92.3009 30.271 109.372C17.3069 122.292 6.005 133.782 5.15522 134.903C1.65032 139.528 0.136756 143.98 0.124854 149.7C0.120093 151.911 0.319703 154.425 0.583582 155.482C4.40983 170.808 20.8553 178.792 34.8984 172.141C38.5679 170.403 40.666 168.74 45.9354 163.394C50.217 159.05 50.2711 158.976 50.2711 157.439C50.2711 156.119 50.1123 155.749 49.2247 155.003C48.5337 154.421 47.773 154.122 46.9838 154.122C45.9075 154.122 45.3056 154.592 40.9221 158.858C33.4784 166.102 30.8239 167.512 24.5973 167.533C19.4509 167.549 15.5441 165.969 12.0229 162.447C8.50165 158.925 6.92212 155.018 6.93878 149.87C6.95136 145.979 7.70288 143.32 9.6194 140.385C10.2444 139.429 19.2265 130.19 29.5797 119.854L48.4035 101.062L73.5574 126.228L69.5553 130.242C66.2684 133.538 65.5169 134.479 65.3502 135.506C65.1704 136.614 65.285 136.895 66.3463 137.957C67.6606 139.272 68.7477 139.471 70.266 138.676C70.771 138.411 75.1692 134.164 80.0401 129.237C86.2528 122.953 89.0844 119.849 89.5282 118.834C89.8757 118.039 90.2532 117.389 90.3667 117.389C90.4803 117.389 93.6778 120.497 97.4724 124.296L104.371 131.202L104.039 132.714C102.164 141.252 104.385 151.556 109.784 159.368C111.787 162.266 116.203 166.637 118.961 168.451C125.379 172.673 131.171 174.366 139.024 174.315C144.739 174.278 148.74 173.42 153.395 171.236C156.451 169.801 157.047 169.15 157.047 167.245C157.047 165.933 156.789 165.637 147.718 156.523C142.587 151.367 138.226 146.719 138.026 146.192C136.716 142.73 138.941 138.696 142.419 138.23C145.603 137.803 145.573 137.781 155.882 148.031C164.971 157.069 165.488 157.523 166.7 157.523C168.564 157.523 169.172 157.055 170.359 154.704C175.204 145.11 175.214 133.359 170.385 123.681C168.466 119.835 167.069 117.872 163.938 114.624C159.22 109.728 153.84 106.54 147.542 104.911C143.402 103.839 136.975 103.522 133.176 104.203L130.557 104.673L108.935 83.0381L147.355 44.3725L152.218 44.3178C155.669 44.279 157.353 44.1222 158.017 43.7783C158.766 43.3909 160.424 40.4458 166.296 29.0681C170.334 21.244 173.738 14.5096 173.859 14.1021C174.272 12.7151 173.102 11.1043 168.049 6.10115C163.02 1.12281 161.688 0.17319 160.317 0.588477C159.921 0.70854 153.194 4.11791 145.369 8.16466C134.168 13.9576 131.039 15.7181 130.662 16.4412C130.324 17.0887 130.167 18.7938 130.128 22.2232L130.073 27.0869L91.4158 65.5151L80.523 54.634C71.849 45.9697 69.6672 43.6144 69.8127 43.0726C69.9137 42.6985 70.1698 40.903 70.3823 39.0823C71.1019 32.9196 69.9039 26.3591 66.9499 20.2845C62.3347 10.7938 54.0636 4.11213 43.5336 1.36803C40.1209 0.478958 33.0835 0.231011 29.4671 0.872818ZM40.4647 7.66911C46.3193 8.79354 51.093 11.356 55.3718 15.6718C59.3433 19.6774 61.6043 23.6861 63.0573 29.2977C63.8588 32.3921 63.867 38.5493 63.0743 41.9757C62.738 43.4304 62.5554 45.0432 62.669 45.5602C62.8104 46.2041 66.6169 50.241 74.7635 58.3869L86.6517 70.2737L80.73 76.2238L73.8825 69.4268C67.1495 62.7431 67.0111 62.6295 65.5978 62.6295C63.5721 62.6295 62.1728 64.0291 62.1728 66.0552C62.1728 67.4688 62.2864 67.6072 68.9687 74.3416L75.7643 81.1906L69.8155 87.1134L57.9412 75.233C51.4102 68.6986 45.712 63.2635 45.2784 63.1547C44.8452 63.0458 42.9743 63.2659 41.1213 63.6434C39.2684 64.021 36.7054 64.3291 35.4255 64.3274C22.3954 64.3131 11.0891 55.4802 7.56413 42.5617C6.50148 38.6677 6.84765 29.2868 8.12998 27.2175C8.34761 26.8662 10.3029 28.6205 15.8294 34.1254C24.7394 43.0001 25.3933 43.4127 30.5481 43.4127C33.3355 43.4127 34.0432 43.2886 35.7084 42.508C38.4104 41.241 40.5446 39.151 41.8548 36.4892C42.8671 34.4325 42.96 33.9716 42.96 31.0055C42.96 25.8411 42.5499 25.1908 33.6746 16.2765C25.6341 8.20105 25.8123 8.52179 29.0179 7.89665C29.953 7.71434 31.0242 7.49837 31.3983 7.41674C32.952 7.07866 38.1415 7.22287 40.4647 7.66911ZM163.306 11.2394L166.321 14.2688L154.385 37.2905L143.305 37.4783L136.969 31.1684L137.154 20.077L148.546 14.1562C154.811 10.8996 160.017 8.22962 160.114 8.22282C160.212 8.21602 161.648 9.57344 163.306 11.2394ZM82.5775 99.8707L74.5874 91.8789L131.367 35.0842L139.369 43.0671L82.5775 99.8707ZM116.234 99.8506C123.525 107.125 128.308 111.645 128.856 111.779C129.343 111.898 130.643 111.752 131.747 111.456C134.711 110.659 139.869 110.41 142.999 110.913C149.082 111.891 154.304 114.593 158.756 119.067C162.63 122.96 164.985 127.038 166.431 132.354C167.491 136.253 167.144 145.632 165.863 147.699C165.645 148.05 163.69 146.296 158.164 140.791C149.251 131.914 148.601 131.504 143.437 131.504C140.47 131.504 140.01 131.597 137.954 132.609C135.294 133.92 133.204 136.055 131.938 138.757C131.157 140.423 131.033 141.13 131.033 143.918C131.033 149.074 131.445 149.728 140.318 158.64C145.822 164.168 147.576 166.123 147.225 166.341C146.091 167.044 142.302 167.556 138.344 167.54C133.789 167.521 130.862 166.92 126.986 165.205C115.497 160.123 108.366 146.813 110.661 134.735C110.999 132.958 111.279 130.85 111.284 130.051L111.292 128.598L99.4842 116.785C92.9899 110.287 87.6766 104.815 87.6766 104.625C87.6766 104.435 88.9412 103.021 90.4871 101.482L93.298 98.686L99.5835 104.999C103.041 108.472 106.282 111.532 106.787 111.8C109.218 113.09 111.82 111.57 111.82 108.861C111.82 107.448 111.707 107.309 105.027 100.577L98.2331 93.7305L101.028 90.9343C102.566 89.3967 103.975 88.1385 104.16 88.1385C104.345 88.1385 109.779 93.4091 116.234 99.8506ZM63.6643 91.034C65.1041 91.7173 83.1138 109.807 83.5756 111.034C84.1047 112.439 84.0153 114.549 83.3739 115.789C82.7129 117.068 78.8951 121.13 78.3545 121.13C78.1494 121.13 72.3998 115.545 65.5774 108.72L53.173 96.3096L55.3776 94.057C56.5902 92.8179 58.0412 91.5156 58.6023 91.1632C59.8421 90.384 62.1698 90.3245 63.6643 91.034ZM55.7163 144.173C54.3003 145.464 54.0925 146.84 55.0923 148.314C57.0411 151.187 61.1527 150.044 61.1527 146.629C61.1527 143.632 57.9151 142.17 55.7163 144.173Z" fill="#BDBDBD"/>
</svg>
