<svg width="174" height="175" viewBox="0 0 174 175" fill="none" xmlns="http://www.w3.org/2000/svg">
<path d="M93.1032 87.5924H138.153V110.622H93.1032V87.5924Z" fill="#BDBDBD"/>
<path d="M5.00555 33.5232H152.169V55.5514H5.00555V33.5232Z" fill="#BDBDBD"/>
<path fill-rule="evenodd" clip-rule="evenodd" d="M8.46561 16.8817C4.48026 17.9873 1.17841 21.515 0.319015 25.5864C0.0267655 26.9707 -0.0491038 39.9955 0.0284666 75.6074L0.132914 123.757L1.08519 125.696C2.25725 128.084 4.64492 130.494 6.64644 131.31C8.18356 131.937 8.22371 132.004 8.64728 134.646C9.16578 137.878 12.4132 141.723 15.53 142.794C17.4083 143.44 13.9398 143.031 92.1627 151.847C136.358 156.828 153.448 158.638 154.933 158.494C159.043 158.095 162.772 155.443 164.484 151.701C165.22 150.092 165.625 146.29 169.744 102.319C172.643 71.376 174.131 54.0916 173.991 53.0003C173.536 49.4543 170.69 45.4954 167.478 43.94C166.608 43.5194 164.443 42.9907 162.48 42.7198C160.575 42.4571 158.534 42.1658 157.946 42.0722L156.875 41.9021L156.73 33.8293C156.599 26.5065 156.516 25.5779 155.833 23.835C154.777 21.1379 152.804 19.0313 150.075 17.6875L147.803 16.569L78.9012 16.5129C24.6799 16.4683 9.67271 16.5469 8.46561 16.8817ZM147.629 22.9492C148.462 23.3702 149.48 24.2202 149.89 24.8378C150.615 25.9298 151.214 28.9273 150.965 30.2203C150.845 30.8447 149.017 30.8628 78.2568 30.9465L5.67205 31.0326L5.79963 28.5046C5.91123 26.2976 6.05956 25.8113 6.96693 24.6755C7.5385 23.9602 8.53127 23.1068 9.17292 22.7798C10.2722 22.219 14.2674 22.1846 78.2265 22.1843L146.114 22.1836L147.629 22.9492ZM151.021 54.1698H5.74656V36.8156H151.021V54.1698ZM161.309 47.8798C165.265 48.152 166.439 48.7669 167.645 51.1975L168.449 52.8179L163.973 100.694C158.93 154.645 159.548 150.485 156.339 152.134L154.681 152.985L129.801 150.186C29.3069 138.882 18.4511 137.616 17.4039 137.074C16.1396 136.42 14.7413 134.69 14.4127 133.373L14.18 132.441L148.129 132.264L149.72 131.528C153.218 129.911 155.713 126.648 156.434 122.745C156.687 121.378 156.805 109.059 156.805 84.029C156.805 49.23 156.836 47.3272 157.4 47.4851C157.727 47.5766 159.487 47.7542 161.309 47.8798ZM150.944 91.1752C150.86 119.478 150.798 122.491 150.288 123.417C149.558 124.739 148.373 125.831 147.171 126.286C146.504 126.539 125.577 126.649 78.299 126.649C11.2449 126.649 10.3668 126.641 9.00111 125.974C8.24038 125.602 7.23503 124.733 6.76722 124.042L5.91667 122.786L5.73601 59.9546H151.038L150.944 91.1752ZM12.8078 72.1971C11.2602 73.4146 11.286 75.6625 12.8616 76.8726C13.2631 77.1809 16.6394 77.2901 26.0288 77.2979C38.2969 77.3085 38.6816 77.2887 39.5526 76.6034C40.6679 75.7262 40.7883 73.7202 39.7989 72.4976L39.1488 71.6942L26.4211 71.5976C14.036 71.5033 13.6693 71.5196 12.8078 72.1971ZM48.0411 71.8667C46.3455 72.55 45.9961 75.4444 47.4696 76.6034C48.3405 77.2887 48.7253 77.3085 60.9933 77.2979C74.5964 77.2863 74.4413 77.3064 75.1387 75.4709C75.6089 74.2344 75.2683 73.0264 74.217 72.1992C73.3958 71.5533 72.8286 71.5251 61.0716 71.5455C54.3138 71.5574 48.4501 71.702 48.0411 71.8667ZM13.2314 83.5339C11.4657 84.4271 11.1282 86.7747 12.5595 88.2062C13.2134 88.8602 13.7714 88.8783 33.3198 88.8783H53.4085L54.2434 88.0429C55.6631 86.6233 55.1327 84.0967 53.2799 83.4508C51.6883 82.8958 14.3395 82.9734 13.2314 83.5339ZM62.5635 83.5339C60.7977 84.4271 60.4602 86.7747 61.8915 88.2062C62.5049 88.8197 63.0404 88.8783 68.0294 88.8783C71.0356 88.8783 73.7792 88.7262 74.1262 88.5407C74.4729 88.3549 74.9329 87.6703 75.1476 87.019C75.6249 85.5732 75.086 84.1892 73.7907 83.5339C72.6211 82.9421 63.7331 82.9421 62.5635 83.5339ZM91.5523 83.4464C89.8417 84.1409 89.7437 85.0828 89.8516 99.821L89.9513 113.438L91.8606 115.08L116.082 115.069C134.586 115.061 140.432 114.96 140.844 114.644C142.123 113.661 142.175 113.049 142.175 98.958V85.1733L140.533 83.2637L116.433 83.1966C102.17 83.1572 92.014 83.2589 91.5523 83.4464ZM136.391 109.295H95.9051V88.8783H136.391V109.295Z" fill="#BDBDBD"/>
</svg>
