<svg width="174" height="175" viewBox="0 0 174 175" fill="none" xmlns="http://www.w3.org/2000/svg">
<path d="M6.2336 118.37L26.5193 115.022L35.0704 165.024L14.7847 168.372L6.2336 118.37Z" fill="#BDBDBD"/>
<path d="M48.9174 49.5569H63.185V57.5665H48.9174V49.5569Z" fill="#BDBDBD"/>
<path d="M119.236 49.5569H133.504V57.5665H119.236V49.5569Z" fill="#BDBDBD"/>
<path fill-rule="evenodd" clip-rule="evenodd" d="M57.1106 0.795084C54.4258 1.4402 51.3077 3.79336 50.0955 6.09004C49.799 6.65145 47.5676 12.371 45.1362 18.8L40.7159 30.4889L37.6304 33.6008C34.3755 36.8832 33.412 38.445 32.5174 41.8869C32.0422 43.7158 31.9823 46.5436 32.0713 62.9823L32.1742 81.9655L33.0792 83.8369C34.23 86.2172 36.1585 88.1117 38.5814 89.2424C40.3966 90.0896 40.7551 90.1315 46.2009 90.1301C51.7382 90.1288 51.9813 90.0992 54.034 89.1682C58.4381 87.1716 60.4095 84.0488 60.6761 78.6481L60.8396 75.3307H120.909L121.098 78.6913C121.227 80.9852 121.507 82.5432 121.983 83.5997C123.021 85.9049 125.196 88.0236 127.678 89.1485C129.785 90.1029 129.992 90.1288 135.556 90.1301C141 90.1315 141.363 90.0893 143.206 89.24C145.665 88.107 147.522 86.2822 148.676 83.8661L149.583 81.9655L149.686 63.1001C149.748 51.7218 149.652 43.3714 149.445 42.0594C148.968 39.0533 147.471 36.1486 144.848 33.1398L142.623 30.5879L138.138 18.6792C135.665 12.1107 133.187 6.08901 132.614 5.25064C132.041 4.41499 130.904 3.23229 130.086 2.62256C127.095 0.393591 128.531 0.472188 91.5949 0.510637C73.2001 0.530031 57.682 0.657964 57.1106 0.795084ZM125.264 7.06689C125.877 7.32344 126.716 7.89778 127.128 8.34282C127.541 8.78821 129.587 13.6691 131.676 19.1896L135.473 29.2269L91.8196 29.3134C67.81 29.3607 48.1096 29.344 48.0403 29.2759C47.8349 29.0745 55.1863 9.8736 55.9264 8.67865C57.2526 6.53644 55.6671 6.62831 91.4958 6.61368C118.407 6.60279 124.345 6.68241 125.264 7.06689ZM140.242 37.3079C143.362 40.7447 143.334 40.6035 143.457 53.3645C143.579 65.9534 143.437 66.9439 141.318 68.213C140.262 68.8452 138.862 68.8635 90.9815 68.8646C54.0715 68.8656 41.508 68.7659 40.8403 68.4671C40.3505 68.248 39.6028 67.5206 39.1789 66.851C38.4228 65.6567 38.4083 65.4212 38.4083 54.4054C38.4083 43.2884 38.4166 43.1595 39.2378 41.3731C39.803 40.1442 40.7949 38.9247 42.35 37.5453L44.6327 35.5215H138.62L140.242 37.3079ZM43.6034 45.6701V53.3278C43.6034 60.964 43.6058 60.9878 44.4429 61.8633L45.2828 62.7414H55.8818C67.7134 62.7414 67.6982 62.7442 68.3514 60.4349C68.812 58.8044 68.8175 47.9838 68.3583 46.3595C67.7072 44.057 67.551 44.0278 55.9299 44.0278H45.547L43.6034 45.6701ZM114.949 44.4388C113.469 45.2727 113.413 45.599 113.402 53.485L113.391 61.0712L115.091 62.7414H136.534L138.364 60.6047L138.154 45.6688L136.21 44.0278L125.926 44.038C118.843 44.0451 115.426 44.17 114.949 44.4388ZM75.6397 48.7388V53.2107C75.6397 57.6918 75.86 58.7272 76.9949 59.5833C77.7842 60.1787 103.627 60.1787 104.416 59.5833C105.551 58.7272 105.771 57.6918 105.771 53.2107V48.7388L103.747 46.7498H77.6644L75.6397 48.7388ZM62.1325 56.617H49.6643V50.1522H62.1325V56.617ZM132.093 56.617H119.625V50.1522H132.093V56.617ZM99.8835 53.3846C99.8835 53.8252 98.6519 53.895 90.8786 53.895C83.1054 53.895 81.8738 53.8252 81.8738 53.3846C81.8738 52.944 83.1054 52.8742 90.8786 52.8742C98.6519 52.8742 99.8835 52.944 99.8835 53.3846ZM41.6985 74.9999C42.7462 75.1796 46.0582 75.3276 49.0582 75.3286L54.513 75.3307V77.8029C54.513 80.7311 53.8114 82.3044 52.0495 83.3265C51.032 83.9168 50.2545 84.007 46.1857 84.007C42.2873 84.007 41.3373 83.9056 40.5625 83.4068C38.8384 82.2969 38.4394 81.2792 38.2895 77.6066L38.1502 74.2088L38.9721 74.4409C39.4237 74.5685 40.6508 74.8203 41.6985 74.9999ZM143.466 77.6573C143.318 81.2758 142.913 82.3006 141.195 83.4068C140.42 83.9056 139.47 84.007 135.572 84.007C131.342 84.007 130.762 83.9335 129.669 83.2608C127.898 82.1707 127.484 81.2768 127.314 78.1782L127.162 75.4116L134.043 75.2521C137.84 75.1639 141.313 74.9264 141.79 74.7226C143.566 73.9649 143.614 74.0479 143.466 77.6573ZM158.242 93.5894C156.165 94.0283 153.888 94.9024 152.354 95.849C151.401 96.437 145.713 100.528 139.712 104.941C133.712 109.354 128.595 113.089 128.34 113.24C128.028 113.426 127.419 113.047 126.469 112.074C122.976 108.504 118.595 106.65 113.044 106.393C109.686 106.237 108.48 106.388 97.2859 108.367C86.4878 110.276 84.6722 110.51 80.6616 110.511C76.5468 110.511 75.7419 110.401 71.3105 109.233C58.2798 105.797 45.6246 107.932 34.8857 115.38C33.7098 116.196 32.6809 116.743 32.5984 116.597C32.516 116.45 32.2421 115.106 31.9892 113.609C31.4624 110.489 30.3878 109.012 28.6509 109.02C28.1123 109.023 21.9056 110.017 14.8579 111.229C1.4823 113.528 0.642426 113.771 0.0197087 115.515C-0.184631 116.087 1.18964 124.554 4.62567 143.891C7.3195 159.049 9.68672 171.958 9.88656 172.578C10.1297 173.332 10.6267 173.882 11.3897 174.24C12.4775 174.749 13.1366 174.669 25.796 172.493C33.0927 171.239 39.3067 170.085 39.6052 169.928C41.1163 169.133 41.4609 168.308 41.2417 166.004L41.0304 163.781L44.5066 161.061C46.4184 159.564 48.6021 158.03 49.3592 157.65C51.9553 156.349 53.9125 156.37 74.947 157.922C97.7888 159.608 101.877 159.644 107.676 158.212C112.872 156.929 116.971 155.205 121.241 152.507C122.225 151.885 132.512 142.255 144.1 131.106C155.687 119.957 167.156 108.931 169.584 106.604C173.765 102.598 174 102.302 174 101.032C174 99.8473 173.769 99.4716 172.009 97.7935C169.867 95.7517 167.852 94.6639 164.737 93.8667C162.888 93.3934 159.792 93.2614 158.242 93.5894ZM164.948 100.379L166.437 101.019L142.622 123.922C117.226 148.345 117.346 148.242 111.494 150.544C103.741 153.594 101.591 153.679 77.3714 151.892C66.7994 151.112 56.7469 150.476 55.0325 150.478C49.7152 150.486 46.8995 151.452 42.4487 154.797C41.0515 155.847 39.8463 156.645 39.7704 156.57C39.5914 156.395 34.079 125.529 34.079 124.702C34.079 123.455 38.9697 119.725 43.6034 117.438C51.7354 113.423 60.2962 112.761 70.4446 115.363C75.1815 116.577 75.7613 116.65 80.6616 116.647C85.5204 116.645 86.6415 116.506 97.9786 114.498C112.624 111.906 114.178 111.86 118.369 113.894C120.091 114.731 121.451 115.696 122.408 116.763C123.723 118.229 125.374 120.869 125.104 121.074C125.043 121.12 117.122 122.502 107.503 124.145C97.8833 125.789 89.7482 127.268 89.4244 127.433C88.5062 127.903 87.7616 129.147 87.7616 130.212C87.7616 131.41 89.4476 133.173 90.5922 133.172C92.6935 133.17 130.386 126.431 131.188 125.914C132.401 125.134 132.633 123.518 131.902 120.958C131.573 119.806 131.364 118.81 131.439 118.743C131.513 118.677 136.904 114.708 143.418 109.923C154.842 101.534 156.53 100.393 158.413 99.7857C159.764 99.3502 163.303 99.6714 164.948 100.379ZM30.2516 139.638C32.5538 152.644 34.5092 163.604 34.5968 163.994C34.7485 164.669 34.3114 164.778 25.2121 166.332C19.9058 167.238 15.552 167.829 15.4055 167.664C15.0626 167.278 6.57106 119.254 6.80484 119.024C7.10996 118.725 25.5799 115.591 25.8296 115.796C25.9595 115.903 27.9492 126.632 30.2516 139.638Z" fill="#BDBDBD"/>
<path d="M80.5099 50.5581H100.892V55.5641H80.5099V50.5581Z" fill="#BDBDBD"/>
</svg>
