<svg width="174" height="175" viewBox="0 0 174 175" fill="none" xmlns="http://www.w3.org/2000/svg">
<path d="M60.7245 117.484L52.6948 103.986L87.8246 105.986L121.449 103.986L114.423 117.484L87.8246 119.984L60.7245 117.484Z" fill="#BDBDBD"/>
<path d="M37.1373 101.987L44.6651 113.485L19.0705 108.986L21.5798 99.487L37.1373 101.987Z" fill="#BDBDBD"/>
<path d="M137.006 101.987L129.479 113.485L155.073 108.986L152.564 99.487L137.006 101.987Z" fill="#BDBDBD"/>
<path fill-rule="evenodd" clip-rule="evenodd" d="M114.854 1.29148C114.394 1.71214 113.594 3.20282 113.076 4.60447C111.296 9.42207 109.825 10.8777 104.821 12.7735C101.848 13.8992 100.985 14.6773 100.985 16.2332C100.985 17.6016 101.894 18.3135 105.251 19.5755C109.626 21.2204 111.176 22.7692 113.029 27.3469C114.254 30.3717 114.615 30.9518 115.491 31.3079C116.313 31.6422 116.729 31.6364 117.581 31.2797C118.495 30.8967 118.82 30.3819 119.898 27.6102C121.83 22.6445 123.383 21.1922 128.888 19.2075C131.178 18.3818 132.026 17.5574 132.026 16.1575C132.026 14.6766 131.117 13.8717 128.186 12.7578C123.117 10.8312 121.638 9.35581 119.908 4.50321C118.553 0.701254 116.752 -0.443172 114.854 1.29148ZM159.57 4.25822C159.058 4.65985 158.386 5.85729 157.904 7.22734C156.882 10.136 155.376 11.6854 152.545 12.7398C149.621 13.8292 148.74 14.5781 148.74 15.9747C148.74 17.5445 149.578 18.3525 152.149 19.2625C155.236 20.3553 156.673 21.7539 157.795 24.7566C158.839 27.5545 159.615 28.39 161.169 28.39C162.591 28.39 163.434 27.4509 164.47 24.7138C165.522 21.9374 166.996 20.4922 169.958 19.3345C174.866 17.4164 174.965 14.7317 170.192 12.9155C166.832 11.6362 165.751 10.5859 164.426 7.30991C162.936 3.6296 161.514 2.7356 159.57 4.25822ZM120.83 15.1428L122.121 16.0742L120.705 17.0501C119.926 17.587 118.708 18.7579 117.997 19.6522C117.287 20.5462 116.612 21.2805 116.496 21.2836C116.381 21.287 115.84 20.6747 115.293 19.9237C114.747 19.1725 113.541 17.9934 112.613 17.3033L110.926 16.0484L112.221 15.1143C112.933 14.6005 114.185 13.4058 115.003 12.4598L116.49 10.7394L118.015 12.4755C118.853 13.4303 120.12 14.6304 120.83 15.1428ZM161.141 18.9163L158.259 16.0457L161.084 13.1788L163.989 15.9876L161.141 18.9163ZM142.555 20.919C142.25 21.0971 141.505 22.4651 140.9 23.9591C139.554 27.2867 138.197 28.6089 134.805 29.8998C132.241 30.876 131.685 31.4404 131.685 33.0656C131.685 34.3463 132.644 35.1655 135.543 36.3609C138.48 37.572 139.552 38.6467 140.709 41.5404C141.821 44.3196 142.73 45.3797 144.005 45.3797C145.378 45.3797 146.499 44.1517 147.399 41.6607C148.449 38.7565 149.999 37.2366 152.98 36.188C157.868 34.4693 157.843 31.4183 152.929 29.7037C149.958 28.6677 148.455 27.195 147.409 24.2993C146.973 23.0916 146.3 21.7596 145.913 21.3393C145.171 20.5323 143.566 20.3312 142.555 20.919ZM144.14 35.8451L141.234 33.0045L144.108 30.0877L147.02 32.9341L144.14 35.8451ZM74.3792 40.6189C62.1721 41.1646 45.1691 43.0902 41.5247 44.339C38.6615 45.3206 35.8644 46.8939 33.827 48.6693C30.7346 51.3639 29.0887 54.1451 25.2418 63.1754C23.2821 67.7762 21.582 71.5412 21.464 71.5422C21.3463 71.5432 21.0578 71.0821 20.8231 70.5177C20.2742 69.1976 18.7464 67.9244 17.1436 67.4507C16.1124 67.1463 14.9066 67.2404 10.5927 67.9631C3.91862 69.0811 3.39264 69.2574 1.93987 70.8592C-0.741209 73.8151 -0.629327 78.472 2.18956 81.2634C3.50247 82.5631 3.88349 82.7241 7.69328 83.5872C9.94458 84.0972 12.2167 84.6178 12.7427 84.7442L13.6984 84.9742L11.25 88.7076C8.25474 93.2751 6.73308 96.4416 5.7524 100.148C5.03437 102.861 4.99958 103.726 4.88088 121.683C4.74239 142.614 4.80856 143.427 7.00494 147.872C9.14196 152.198 13.6005 155.587 19.1203 157.081C21.2041 157.646 25.2909 157.682 87.0001 157.682C148.953 157.682 152.788 157.647 154.88 157.075C162.455 155.005 167.221 150.127 168.72 142.909C169.169 140.747 169.228 137.565 169.115 121.502C168.987 103.148 168.962 102.561 168.213 99.9167C167.17 96.2391 165.667 93.1558 162.75 88.7076L160.302 84.9742L161.258 84.7479C161.784 84.6236 164.056 84.1047 166.307 83.5954C170.124 82.7319 170.495 82.5746 171.811 81.2681C174.629 78.4675 174.741 73.8147 172.06 70.8592C170.608 69.2574 170.082 69.0811 163.408 67.9631C159.094 67.2404 157.888 67.1463 156.857 67.4507C155.254 67.9244 153.726 69.1976 153.177 70.5177C152.942 71.0821 152.652 71.5439 152.532 71.5439C152.411 71.5439 150.715 67.7837 148.762 63.1877C143.975 51.9262 141.69 48.8056 136.127 45.9326C132.247 43.9292 129.939 43.4164 119.158 42.1622C106.793 40.7239 87.1621 40.0474 74.3792 40.6189ZM105.761 46.4107C112.021 46.8364 119.254 47.5935 125.374 48.4634C129.191 49.0053 130.645 49.3744 132.616 50.2989C135.201 51.5117 137.799 53.67 139.339 55.8835C139.84 56.6042 142.28 61.9134 144.76 67.6818L149.27 78.1699L154.762 86.5091C160.904 95.8347 161.7 97.2564 162.778 100.821C163.49 103.174 163.54 104.074 163.665 116.821L163.797 130.328H89.9616C18.3289 130.328 16.1025 130.347 15.3378 130.964C14.2718 131.824 14.2575 133.79 15.3095 134.838L16.0691 135.595L163.749 135.771V137.96C163.749 145.758 159.531 150.885 152.151 152.057C150.678 152.292 128.693 152.409 86.659 152.406C33.6145 152.404 23.0184 152.326 21.1222 151.926C15.3272 150.702 11.6644 147.142 10.6009 141.7C10.3201 140.263 10.2413 134.382 10.3304 121.494C10.4897 98.4083 9.96777 100.594 18.3821 87.7691L23.0079 80.7183H142.903L143.795 79.9538C144.975 78.9436 145.045 77.2766 143.957 76.1233L143.163 75.2816H84.7236C49.3384 75.2816 26.2835 75.1583 26.2835 74.9687C26.2835 74.5986 32.8931 59.0259 33.8188 57.2141C34.1698 56.5277 35.3217 55.0357 36.3792 53.898C39.0278 51.0479 42.5617 49.339 47.2614 48.635C55.4687 47.4053 67.4958 46.3366 77.7903 45.9221C82.4863 45.7331 100.403 46.0461 105.761 46.4107ZM15.9487 72.988C16.4126 73.5979 18.0983 77.6296 18.0895 78.1073C18.0854 78.3286 17.804 78.8692 17.4646 79.3089L16.8475 80.1081L11.4645 78.8807C8.50409 78.2055 5.94547 77.5691 5.77901 77.4668C5.31203 77.1794 5.41641 74.6034 5.90249 74.4189C6.21698 74.2996 13.0602 72.9897 15.4118 72.5989C15.5295 72.5792 15.771 72.7546 15.9487 72.988ZM163.909 73.5901C166.155 73.9778 168.11 74.4787 168.253 74.7033C168.593 75.2354 168.588 76.6948 168.244 77.2334C168.096 77.4658 165.534 78.2005 162.552 78.8661L157.129 80.0764L156.523 79.2929C155.729 78.265 155.744 78.0798 156.816 75.5589C157.98 72.8229 158.211 72.5354 159.097 72.7277C159.498 72.8144 161.663 73.2024 163.909 73.5901ZM20.4851 97.3941C19.2608 97.9034 18.1389 99.0339 17.3066 100.596C16.7104 101.715 16.5808 102.557 16.5722 105.353C16.563 108.406 16.6599 108.95 17.5256 110.707C18.4408 112.563 20.161 114.156 21.9528 114.807C22.8605 115.136 46.3855 118.435 47.8283 118.435C49.5277 118.435 50.6401 117.476 50.6322 116.016C50.623 114.304 44.4258 103.477 41.6574 100.336C40.3029 98.7991 39.4818 98.5663 33.1056 97.9109C25.8325 97.1633 21.4688 96.9846 20.4851 97.3941ZM145.841 97.41C140.468 97.8195 134.56 98.6255 133.744 99.0607C132.701 99.6163 130.618 102.382 128.162 106.471C124.484 112.592 123.1 115.441 123.339 116.397C123.696 117.825 124.501 118.435 126.024 118.435C127.989 118.434 151.092 115.164 152.26 114.722C155.311 113.564 157.27 110.475 157.532 106.404C157.808 102.12 156.261 98.5881 153.628 97.4919C152.417 96.988 151.506 96.9785 145.841 97.41ZM49.6338 100.921C49.1733 101.38 48.7964 102.134 48.7964 102.596C48.7964 103.661 56.0145 118.981 56.9594 119.922C57.6187 120.579 58.5759 120.674 72.4588 121.458L87.2556 122.294L101.794 121.462C116.332 120.631 116.333 120.631 117.149 119.788C118.2 118.703 125.204 103.783 125.204 102.63C125.204 102.141 124.813 101.366 124.319 100.873C123.46 100.017 123.347 99.9979 120.481 100.22C90.1236 102.577 84.9542 102.623 60.9056 100.753C50.2307 99.9221 50.6425 99.916 49.6338 100.921ZM30.7178 103.156C33.2506 103.347 35.8392 103.596 36.4702 103.709C37.7439 103.937 38.5834 104.948 41.3723 109.616C42.6644 111.779 42.869 112.317 42.3956 112.309C42.0702 112.304 37.675 111.703 32.6287 110.975C25.2926 109.917 23.3258 109.524 22.8141 109.014C22.0732 108.276 21.6482 105.507 21.9941 103.671L22.2267 102.436L24.1697 102.622C25.2387 102.724 28.1851 102.964 30.7178 103.156ZM151.798 103.122C152.747 104.888 151.834 109.02 150.377 109.552C149.417 109.903 131.356 112.444 131.166 112.255C131.01 112.1 135.221 105.311 136.022 104.426C136.314 104.102 137.032 103.753 137.616 103.65C138.44 103.504 145.334 102.909 150.86 102.508C151.182 102.484 151.604 102.761 151.798 103.122ZM67.0455 106.739C81.962 107.863 94.1323 107.758 111.703 106.354C115.066 106.086 117.856 105.906 117.906 105.955C118.002 106.051 113.839 114.919 113.573 115.184C113.484 115.272 107.661 115.683 100.632 116.096C87.9719 116.841 87.7512 116.843 76.9375 116.256C70.9341 115.931 64.7529 115.577 63.2012 115.47L60.3806 115.275L59.7435 113.882C59.3932 113.116 58.3978 110.986 57.5314 109.149L55.9565 105.809L58.0901 106.017C59.2635 106.132 63.2934 106.457 67.0455 106.739ZM5.61255 154.967L4.75637 155.819L4.86041 163.063C4.96411 170.274 4.96854 170.312 5.87997 171.683C6.43086 172.511 7.39073 173.347 8.29022 173.781C9.68704 174.454 10.3246 174.501 18.0451 174.501C24.7291 174.501 26.5465 174.401 27.5688 173.975C30.6428 172.696 31.7231 170.619 31.7337 165.968C31.7401 163.17 31.6395 162.572 31.0341 161.805C30.4937 161.12 30.0244 160.91 29.0403 160.91C26.9667 160.91 26.4854 161.731 26.2835 165.616L26.1129 168.895H10.4221L10.2328 162.269C10.1288 158.625 10.0138 155.611 9.97698 155.571C8.39733 153.871 6.91829 153.666 5.61255 154.967ZM164.647 154.818L163.749 155.522V161.886C163.749 166.382 163.629 168.369 163.339 168.657C163.046 168.949 160.825 169.065 155.506 169.065C146.828 169.065 147.376 169.338 147.376 165.01C147.376 161.87 146.811 160.91 144.965 160.91C142.724 160.91 141.912 162.217 141.926 165.802C141.944 170.11 143.172 172.662 145.801 173.851C147.05 174.417 148.128 174.487 155.562 174.487C164.87 174.487 165.769 174.313 167.587 172.161C168.967 170.527 169.202 169.104 169.204 162.38C169.206 156.231 169.203 156.2 168.323 155.159C167.267 153.909 165.963 153.788 164.647 154.818Z" fill="#BDBDBD"/>
</svg>
