<svg width="174" height="175" viewBox="0 0 174 175" fill="none" xmlns="http://www.w3.org/2000/svg">
<path d="M123.599 151.585V125.758C125.24 124.682 125.787 125.22 127.975 127.372C130.164 129.524 133.993 131.138 137.823 131.138C141.652 131.138 143.84 128.448 146.576 125.758C148.764 123.606 150.405 124.861 150.952 125.758V151.585L136.181 144.052L123.599 151.585Z" fill="#BDBDBD"/>
<path d="M155.005 94.5524C155.005 104.499 146.84 112.563 136.769 112.563C126.698 112.563 118.533 104.499 118.533 94.5524C118.533 84.6055 126.698 76.5421 136.769 76.5421C146.84 76.5421 155.005 84.6055 155.005 94.5524Z" fill="#BDBDBD"/>
<path fill-rule="evenodd" clip-rule="evenodd" d="M35.2534 1.15533C34.1172 1.54093 32.4129 2.4468 31.4661 3.16802C30.5193 3.88924 23.5318 10.6472 15.9383 18.1855C4.17367 29.8644 1.98428 32.193 1.13352 33.9316L0.135061 35.9719L0.0455441 99.8851C-0.0536134 170.488 -0.202006 165.598 2.14128 168.971C3.71368 171.235 6.23428 173.059 8.91463 173.871C11.1188 174.539 12.0436 174.548 70.5438 174.459L129.935 174.367L132.077 173.39C134.436 172.314 137.157 169.753 138.29 167.542C139.64 164.907 140.232 159.297 139.358 157.405C138.563 155.679 135.832 155.526 134.948 157.157C134.747 157.528 134.583 158.844 134.583 160.083C134.583 163.572 134.018 165.233 132.203 167.083C131.152 168.155 130.147 168.819 129.199 169.068C128.181 169.336 110.995 169.417 69.0919 169.355L10.4099 169.267L8.73078 168.242C7.50818 167.495 6.78998 166.721 6.08933 165.397L5.12737 163.579V37.8801L17.9524 37.7761C29.4234 37.6829 30.9228 37.6074 32.1547 37.0596C33.7526 36.3493 35.4954 34.778 36.5672 33.0815C37.2978 31.9254 37.324 31.5187 37.4913 18.7999L37.6634 5.70844L82.7247 5.62207C114.587 5.56121 128.202 5.6452 129.205 5.90873C131.182 6.42865 133.653 8.99083 134.183 11.0715C134.462 12.1631 134.583 18.0239 134.583 30.3418C134.583 47.5899 134.601 48.0606 135.272 48.7233C136.297 49.7359 138.14 49.6302 139.034 48.5074C139.735 47.6273 139.747 47.3023 139.747 29.9919C139.747 11.7431 139.639 10.0667 138.29 7.43346C137.157 5.22253 134.436 2.66136 132.077 1.58514L129.935 0.607869L83.6271 0.531021C37.6521 0.454852 37.3043 0.459273 35.2534 1.15533ZM31.7887 30.9515C30.6921 32.6045 29.6998 32.7415 18.8263 32.7415H8.74627L32.1547 9.6148L32.2459 19.87C32.3251 28.7797 32.2652 30.2334 31.7887 30.9515ZM56.0651 18.8873C55.4212 19.3158 54.5423 20.1825 54.1119 20.8136C53.3741 21.8949 53.329 22.2925 53.329 27.7249C53.329 34.3339 53.5927 35.2894 55.8189 36.7444C56.9286 37.4697 57.6809 37.6533 60.0496 37.7761C63.4265 37.9509 64.4205 37.7601 65.3697 36.7536C66.2583 35.8117 66.257 34.7705 65.3649 33.6504C64.7173 32.8377 64.4232 32.7599 61.6637 32.6694L58.6656 32.5715L58.4741 23.2204H112.567L112.376 32.5715L93.4585 32.6595C74.592 32.7473 74.539 32.7493 73.7475 33.4838C72.4474 34.6902 72.7353 36.5169 74.3559 37.3446C75.1753 37.7632 78.2736 37.8421 93.8875 37.8421C106.805 37.8421 112.801 37.7248 113.616 37.4565C115.028 36.9909 116.834 35.3768 117.369 34.1013C117.624 33.4923 117.721 31.161 117.649 27.3689C117.53 21.0364 117.415 20.6467 115.17 18.991C114.23 18.2977 113.895 18.2888 85.7273 18.1991L57.2353 18.1083L56.0651 18.8873ZM133.285 57.1117C132.449 57.4041 130.796 58.549 129.449 59.7698C126.706 62.2568 125.819 62.5414 122.59 61.9715C118.424 61.236 114.382 62.7682 112.191 65.9143C110.887 67.7851 110.538 68.7206 110.162 71.3423C109.758 74.1595 109.172 74.9477 106.419 76.381C102.122 78.6184 100.033 81.6934 100.019 85.8045C100.013 87.6788 100.214 88.4527 101.287 90.6854C102.831 93.8943 102.874 95.0848 101.543 97.6177C98.2979 103.792 100.196 109.464 106.555 112.594C109.097 113.845 109.741 114.745 110.205 117.695C110.649 120.518 111.532 122.41 113.171 124.05C114.458 125.338 117.384 126.923 118.487 126.929C119.049 126.932 119.09 127.742 119.097 139.088C119.104 150.227 119.159 151.362 119.749 152.645C120.482 154.241 121.451 155.021 123.313 155.518C125.219 156.027 126.364 155.587 131.847 152.242C134.533 150.603 136.906 149.263 137.12 149.264C137.334 149.266 139.592 150.543 142.136 152.103C147.759 155.549 148.9 155.989 150.876 155.472C152.482 155.051 153.648 154.128 154.499 152.605C154.993 151.72 155.082 149.966 155.174 139.324L155.279 127.063L156.766 126.67C158.607 126.184 160.947 124.456 162.179 122.672C163.109 121.327 163.448 120.313 164.178 116.697C164.629 114.466 165.484 113.549 168.387 112.183C170.504 111.187 172.011 109.714 173.221 107.455C173.841 106.298 173.991 105.457 173.997 103.109C174.004 100.449 173.904 100.011 172.835 98.0088C171.307 95.1477 171.306 93.7699 172.828 90.888C173.885 88.8856 173.995 88.4061 174 85.7875C174.004 83.2355 173.889 82.6911 173.017 81.1368C171.737 78.8558 170.664 77.869 167.955 76.481C165.391 75.1674 164.319 73.8324 164.01 71.566C163.433 67.336 161.503 64.4246 158.241 62.8645C155.84 61.7158 153.996 61.4791 151.324 61.977C148.258 62.5482 147.282 62.2483 144.982 60.0296C142.311 57.4531 140.255 56.5442 137.165 56.5744C135.84 56.5874 134.094 56.8291 133.285 57.1117ZM141.329 63.7142C144.2 66.3522 146.103 67.2169 149.044 67.22C150.274 67.2214 152.056 67.1051 153.003 66.9619C156.142 66.4865 158.397 68.4676 158.844 72.0914C159.349 76.1817 161.335 78.899 165.257 80.8641C167.828 82.1521 168.692 83.211 168.939 85.3753C169.084 86.6437 168.902 87.2782 167.779 89.4354C166.573 91.7497 166.449 92.2312 166.469 94.5142C166.489 96.7336 166.643 97.3222 167.752 99.4193C169.94 103.555 169.312 105.845 165.42 107.926C161.228 110.167 159.363 112.682 158.852 116.784C158.531 119.363 157.646 120.701 155.701 121.551C154.258 122.182 153.93 122.206 152.091 121.821C148.083 120.981 144.384 122.068 141.641 124.891C139.888 126.695 138.76 127.272 136.988 127.272C135.159 127.272 134.453 126.888 132.274 124.706C129.794 122.223 127.394 121.333 124.082 121.668C120.153 122.066 118.76 121.975 117.785 121.257C116.239 120.116 115.624 118.974 115.285 116.613C114.706 112.57 112.788 109.885 109.308 108.245C106.874 107.097 106.257 106.525 105.483 104.697C104.815 103.117 105.02 102.001 106.482 99.2458C107.428 97.464 107.556 96.8935 107.556 94.4625C107.556 92.0469 107.419 91.429 106.46 89.5102C105.001 86.5913 104.875 86.0503 105.294 84.513C105.732 82.907 106.951 81.7641 109.512 80.5597C112.8 79.0129 114.716 76.2729 115.285 72.3036C115.628 69.9165 116.238 68.8008 117.847 67.6165C118.63 67.0405 119.18 66.9391 120.924 67.049C126.02 67.3696 127.473 67.2588 129.229 66.4165C130.166 65.9666 131.638 64.8826 132.5 64.007C134.538 61.9365 135.082 61.6675 137.26 61.6549C139.012 61.6451 139.156 61.7182 141.329 63.7142ZM19.9573 63.2208C19.028 64.3872 19.0566 65.1325 20.0743 66.3012L20.9051 67.2554L53.9015 67.3547C72.0494 67.4091 87.4102 67.3625 88.0362 67.2506C90.3195 66.8429 91.3156 64.4776 89.8244 63.0049C89.1451 62.334 88.6769 62.3248 54.9034 62.3248H20.6707L19.9573 63.2208ZM131.754 73.7341C127.662 74.7138 122.787 77.8547 120.168 81.1983C117.006 85.2352 115.541 89.4337 115.541 94.4584C115.541 100.42 117.512 104.994 122 109.452C125.06 112.492 128.123 114.234 132.169 115.238C135.239 115.999 140.804 115.75 143.879 114.714C150.447 112.5 155.474 107.358 157.865 100.409C158.721 97.9251 158.758 91.1845 157.931 88.6778C155.405 81.0215 149.716 75.5622 142.344 73.7192C139.812 73.0864 134.427 73.0938 131.754 73.7341ZM143.985 79.7491C150.286 82.7098 153.91 88.8148 153.423 95.6486C153.192 98.898 152.152 101.61 150.128 104.242C144.348 111.759 133.158 112.799 126.147 106.47C121.968 102.698 120.147 97.7878 120.847 92.1812C121.582 86.2982 126.201 80.8624 132.091 78.949C133.622 78.4515 134.88 78.327 137.682 78.3964C141.049 78.4794 141.481 78.5722 143.985 79.7491ZM20.7313 80.4111C19.0755 81.2017 18.9826 83.9013 20.5815 84.7466C21.0494 84.9938 31.9199 85.1074 55.14 85.1074H89.0157L89.7645 84.3205C90.8236 83.2069 90.7533 81.603 89.6058 80.7117C88.7017 80.0092 88.587 80.0068 55.09 80.0299C32.2996 80.0456 21.2401 80.168 20.7313 80.4111ZM20.5157 98.4066C18.9233 99.3217 19.1516 102.173 20.869 102.818C21.3506 102.999 35.7498 103.129 55.1985 103.129C88.5684 103.129 88.7024 103.127 89.6058 102.425C90.7916 101.503 90.8425 99.8134 89.7163 98.7681L88.9193 98.0288L55.0284 98.039C31.9946 98.0462 20.9382 98.1638 20.5157 98.4066ZM19.9573 116.947C19.028 118.113 19.0566 118.859 20.0743 120.027L20.9055 120.981H89.1968L89.8547 120.179C90.7083 119.138 90.6945 117.59 89.8244 116.731C89.1451 116.06 88.6769 116.051 54.9034 116.051H20.6707L19.9573 116.947ZM126.773 126.983C127.187 127.198 128.395 128.166 129.458 129.133C132.333 131.748 133.479 132.204 137.165 132.197C140.828 132.19 142.179 131.632 144.581 129.136C146.204 127.45 147.764 126.592 149.205 126.592H150.076V138.473C150.076 145.008 149.96 150.424 149.818 150.509C149.676 150.594 147.236 149.236 144.396 147.492C139.003 144.182 137.314 143.569 135.482 144.259C134.935 144.464 132.363 145.929 129.767 147.514C127.171 149.099 124.868 150.395 124.65 150.395C124.359 150.395 124.254 147.237 124.254 138.493V126.592H125.138C125.623 126.592 126.359 126.768 126.773 126.983ZM20.5157 142.612C18.9264 143.525 19.1203 146.18 20.8325 146.95C21.4298 147.219 26.7795 147.334 38.666 147.334C55.3231 147.334 55.6633 147.321 56.5533 146.63C57.6902 145.746 57.7972 143.927 56.7719 142.914C56.1012 142.251 55.6316 142.234 38.6102 142.244C27.0463 142.251 20.9268 142.375 20.5157 142.612Z" fill="#BDBDBD"/>
</svg>
