<svg width="174" height="175" viewBox="0 0 174 175" fill="none" xmlns="http://www.w3.org/2000/svg">
<path d="M51.6349 27.9985L53.1388 24.4985H68.1781L69.682 27.9985H51.6349Z" fill="#BDBDBD"/>
<path d="M105.275 85.4985L107.113 80.4985H125.494L127.333 85.4985H105.275Z" fill="#BDBDBD"/>
<path d="M40.1048 135.499L42.3607 128.499H64.9196L67.1755 135.499H40.1048Z" fill="#BDBDBD"/>
<path d="M71.6873 31.4985H50.131L47.1231 39.9985H73.6925L71.6873 31.4985Z" fill="#BDBDBD"/>
<path d="M128.997 87.4985H103.781L100.262 99.4985H131.343L128.997 87.4985Z" fill="#BDBDBD"/>
<path d="M68.3862 138.499H38.2887L34.089 150.499H71.186L68.3862 138.499Z" fill="#BDBDBD"/>
<path fill-rule="evenodd" clip-rule="evenodd" d="M27.9276 1.27202C27.2611 1.93675 26.9762 3.1415 25.8985 9.85307C24.0848 21.1498 24.1328 20.6074 24.8657 21.4734C25.92 22.7192 27.1381 22.7923 28.3368 21.6817C29.3545 20.7386 29.4043 20.5381 30.7914 11.7504C32.322 2.05196 32.3114 1.48442 30.59 0.831582C29.2823 0.33575 28.7838 0.417992 27.9276 1.27202ZM36.726 1.33285C36.266 1.79164 35.8891 2.36496 35.8888 2.60727C35.8885 2.84923 31.0722 41.1109 25.1857 87.6328C16.9815 152.474 14.566 172.4 14.8379 172.996C15.5725 174.604 18.4228 174.915 19.1969 173.473C19.5016 172.905 40.9988 4.60453 41.0001 2.77719C41.0008 1.87422 39.458 0.498535 38.445 0.498535C37.9594 0.498535 37.186 0.874062 36.726 1.33285ZM85.3821 1.17109C84.3394 2.13964 84.2137 3.66282 84.3354 13.8286C84.441 22.6536 84.4652 22.9316 85.1916 23.6558C86.1099 24.5707 87.759 24.6302 88.6988 23.7819C89.3585 23.1865 89.3847 22.7539 89.3847 12.5236C89.3847 2.01662 89.3755 1.87592 88.6388 1.19148C87.6936 0.31332 86.3147 0.304484 85.3821 1.17109ZM134.367 0.927418C133.902 1.16667 133.39 1.74168 133.231 2.20489C133.032 2.78195 136.328 29.8152 143.693 88.0083L154.446 172.969L155.326 173.734C155.81 174.155 156.421 174.499 156.683 174.499C157.582 174.499 158.82 173.743 159.168 172.981C159.431 172.405 156.904 151.604 148.822 87.803C142.94 41.3743 138.123 3.1364 138.118 2.8302C138.094 1.28187 135.871 0.153934 134.367 0.927418ZM143.226 0.935574C142.761 1.17041 142.25 1.74168 142.091 2.20489C141.886 2.802 145.046 23.145 152.938 72.0356C165.208 148.054 164.164 142.702 166.687 142.484C167.48 142.416 168.071 142.094 168.526 141.485L169.195 140.587L158.044 71.4773C151.91 33.4671 146.747 2.09274 146.569 1.75664C146.285 1.21968 144.966 0.489359 144.306 0.503633C144.177 0.506352 143.692 0.700742 143.226 0.935574ZM51.0521 20.5337C49.7982 21.0509 48.7195 22.5744 47.9709 24.885C47.2359 27.1542 47.2162 27.1773 45.9033 27.285C43.3536 27.4944 42.1552 29.9263 43.7615 31.6313C44.4228 32.3334 44.4422 32.4921 44.017 33.6924C43.6974 34.5937 43.556 36.8 43.556 40.8842C43.556 46.6656 43.571 46.788 44.3605 47.4262C46.1657 48.8858 48.3549 47.7185 48.558 45.188L48.667 43.8286L72.2584 43.6499L72.4397 45.2553C72.7385 47.8979 75.0916 49.017 76.7183 47.2903C77.4198 46.545 77.4583 46.2004 77.444 40.7483C77.4338 36.7983 77.2842 34.5872 76.9666 33.6999C76.5308 32.4805 76.5509 32.3609 77.3224 31.5915C79.0196 29.8988 77.7139 27.3462 75.1516 27.3462C73.8476 27.3462 73.8299 27.3282 73.222 25.3921C72.3374 22.5741 71.7739 21.6242 70.5425 20.8756C69.5322 20.2608 68.7999 20.2136 60.5927 20.2322C55.7202 20.2435 51.4269 20.3791 51.0521 20.5337ZM68.5645 27.3462H60.575C56.1809 27.3462 52.5854 27.2796 52.5854 27.1984C52.5854 27.1171 52.735 26.6583 52.9177 26.1788L53.2499 25.3071H67.8517L68.5645 27.3462ZM71.4151 33.7043C71.7664 34.3041 72.1412 35.6421 72.2485 36.678L72.4434 38.561H48.4193L48.6517 36.9468C48.7794 36.0591 49.1948 34.6804 49.5751 33.8831L50.2657 32.434L70.7769 32.6138L71.4151 33.7043ZM22.6356 33.7686C22.2799 34.1234 21.8996 34.8499 21.7906 35.3828C21.6819 35.916 16.6714 66.8615 10.6568 104.151C2.89487 152.271 -0.195587 172.196 0.00953425 172.799C0.612974 174.571 3.34225 174.943 4.33856 173.389C4.79071 172.683 26.7074 38.1743 26.7892 35.603C26.8089 34.9787 26.5547 34.2178 26.1929 33.8189C25.3799 32.923 23.5099 32.8965 22.6356 33.7686ZM85.4001 46.178L84.444 46.9977L84.3442 60.7861C84.2369 75.6444 84.349 76.9185 85.8213 77.5877C87.0302 78.1372 87.4555 78.0876 88.4869 77.2784L89.3847 76.5743V46.7666L88.4869 46.0624C87.3181 45.1455 86.5712 45.1734 85.4001 46.178ZM105.229 76.9097C103.705 77.8392 103.337 78.421 102.341 81.4792L101.433 84.27L99.6708 84.4491C98.6877 84.549 97.6567 84.8797 97.3381 85.1975C96.4392 86.094 96.6103 87.8112 97.6908 88.7383L98.6141 89.5305L98.0407 91.1481C97.6223 92.3287 97.4226 94.3501 97.3016 98.6247C97.121 105.014 97.3296 106.16 98.7941 106.825C99.9733 107.361 100.408 107.311 101.417 106.519C102.129 105.961 102.317 105.488 102.4 104.055L102.503 102.282L129.844 102.104L130.015 103.872C130.147 105.246 130.389 105.815 131.1 106.425C132.23 107.394 132.986 107.414 134.145 106.505L135.043 105.801V99.4301C135.043 94.6533 134.91 92.6135 134.512 91.2776L133.982 89.4958L134.853 88.8124C135.467 88.3308 135.724 87.8041 135.724 87.0292C135.724 85.312 135.031 84.6615 132.978 84.4529L131.179 84.27L130.3 81.7212C129.164 78.4274 128.756 77.7471 127.44 76.9464C126.43 76.3319 125.656 76.2861 116.303 76.2861C107.153 76.2861 106.159 76.3421 105.229 76.9097ZM124.94 81.6389C125.028 81.7803 125.207 82.4685 125.339 83.1682L125.578 84.4399H106.716L106.955 83.6753C107.086 83.2546 107.323 82.5667 107.481 82.146L107.767 81.3813H116.274C120.953 81.3813 124.853 81.4972 124.94 81.6389ZM128.893 91.3884C129.382 92.3729 129.787 93.8859 129.871 95.0417L130.014 97.0142H102.239L102.464 95.0601C102.588 93.9851 103.081 92.3012 103.56 91.3174L104.431 89.5288L128.058 89.7075L128.893 91.3884ZM85.0931 99.7683C84.4815 100.442 84.4383 101.268 84.3405 114.127C84.2836 121.63 84.3302 128.276 84.4447 128.894C84.8618 131.149 87.2278 132.13 88.7032 130.659C89.3639 130 89.3847 129.526 89.3847 115.079C89.3847 101.075 89.3472 100.144 88.7615 99.6157C87.8677 98.8089 85.8894 98.8911 85.0931 99.7683ZM42.0227 125.278C39.8757 125.882 38.6954 127.407 37.5635 131.04L36.543 134.317L34.4618 134.467C32.1278 134.636 31.1192 135.428 31.1192 137.094C31.1192 138.023 32.3336 139.495 33.1002 139.495C33.61 139.495 33.6348 139.337 32.7513 141.716C32.0828 143.515 31.984 144.545 31.8712 150.883C31.7485 157.778 31.7693 158.055 32.4787 158.954C33.0532 159.683 33.5003 159.885 34.532 159.885C36.3021 159.885 36.9117 158.996 36.9117 156.411V154.448H69.5274L69.7151 156.512C69.9455 159.044 70.6021 159.885 72.348 159.885C74.7348 159.885 74.7934 159.652 74.6708 150.657C74.5723 143.424 74.499 142.586 73.8408 141.167L73.1191 139.61L74.0888 139.245C75.4231 138.743 75.9789 137.455 75.431 136.136C74.9291 134.927 74.451 134.684 72.0543 134.425L70.2276 134.227L69.1274 130.858C67.9076 127.123 66.9082 125.879 64.6144 125.244C62.9656 124.787 43.665 124.816 42.0227 125.278ZM64.0624 131.641C64.3005 132.462 64.5861 133.417 64.6965 133.765C64.89 134.372 64.4556 134.397 53.4601 134.397C47.1695 134.397 42.0244 134.282 42.0264 134.142C42.0319 133.753 42.9921 130.679 43.2258 130.302C43.355 130.093 47.2059 130.002 53.531 130.059L63.6296 130.149L64.0624 131.641ZM67.5999 140.545C68.6589 142.029 69.6221 145.346 69.6221 147.511V149.35H36.9117V148.377C36.9117 146.528 37.6109 143.738 38.6045 141.62L39.6018 139.495H66.8499L67.5999 140.545ZM85.5647 152.768C85.2444 152.955 84.8236 153.676 84.6297 154.372C84.1844 155.971 84.1612 170.883 84.6015 172.415C85.1913 174.465 87.1887 175.153 88.6388 173.806C89.3724 173.124 89.3847 172.953 89.3847 163.44C89.3847 154.221 89.3527 153.736 88.7032 153.088C87.9751 152.362 86.5188 152.214 85.5647 152.768ZM167.227 153.583C166.767 154.042 166.389 154.615 166.387 154.857C166.376 156.405 169.268 172.771 169.663 173.389C170.267 174.335 171.415 174.644 172.626 174.185C174.409 173.509 174.42 172.986 172.872 163.243C171.572 155.061 171.374 154.211 170.604 153.513C169.505 152.518 168.269 152.543 167.227 153.583Z" fill="#BDBDBD"/>
</svg>
