<svg width="42" height="42" viewBox="0 0 42 42" fill="none" xmlns="http://www.w3.org/2000/svg">
<path fill-rule="evenodd" clip-rule="evenodd" d="M19.0391 0.0487652C11.9018 0.737177 5.52696 5.05852 2.29653 11.3981C1.15408 13.6403 0.479048 15.8022 0.109683 18.4018C-0.0540406 19.5547 -0.0302875 22.5371 0.152998 23.8224C0.478473 26.1049 1.15194 28.2678 2.18409 30.3456C4.23188 34.4678 7.50323 37.7363 11.6368 39.7903C18.3378 43.1199 26.2571 42.6621 32.5072 38.5837C34.951 36.9891 37.267 34.6251 38.8481 32.1114C39.449 31.156 40.3563 29.2987 40.7684 28.1806C41.1837 27.0538 41.6679 25.0982 41.8474 23.8224C42.0294 22.5301 42.054 19.5404 41.892 18.4018C41.4068 14.9912 40.3244 12.0876 38.5275 9.37584C37.7633 8.22257 37.0001 7.29212 35.9368 6.21745C32.6587 2.90434 28.581 0.849531 23.9183 0.161201C22.9128 0.0127923 20.0872 -0.0523366 19.0391 0.0487652ZM26.8526 10.0491C27.0207 10.217 27.0525 13.7108 26.8882 13.9614C26.7727 14.1376 26.6994 14.1488 25.308 14.2031C23.0554 14.291 23.0553 14.2911 23.0553 16.4691V17.868H24.7953C26.2992 17.868 26.5559 17.8865 26.6857 18.0039C26.8235 18.1285 26.836 18.3064 26.836 20.1334C26.836 21.8362 26.8172 22.1458 26.7069 22.2561C26.5975 22.3653 26.3082 22.3851 24.8185 22.3851H23.0592L23.0367 27.0636C23.0157 31.4288 23.0043 31.7519 22.8674 31.8888C22.7343 32.0216 22.5291 32.0354 20.6813 32.0354C19.0786 32.0354 18.6132 32.0114 18.5069 31.9232C18.3848 31.8219 18.3697 31.3569 18.3505 27.1186L18.3293 22.4262L16.8088 22.4054C15.3758 22.3859 15.28 22.3747 15.1444 22.2116C15.0164 22.0575 15.0006 21.8262 15.0006 20.1174C15.0006 18.306 15.01 18.1871 15.165 18.0322C15.3175 17.8798 15.4389 17.868 16.8499 17.868H18.3704L18.371 16.2048C18.3715 14.8241 18.3996 14.4249 18.5366 13.8538C19.0371 11.7678 20.4518 10.4348 22.6032 10.0222C23.3827 9.87272 26.6971 9.89366 26.8526 10.0491Z" fill="white"/>
</svg>
