<svg width="42" height="42" viewBox="0 0 42 42" fill="none" xmlns="http://www.w3.org/2000/svg">
<path fill-rule="evenodd" clip-rule="evenodd" d="M19.4235 0.0395224C16.3756 0.331371 14.0588 0.979247 11.5269 2.24792C8.19466 3.91751 5.10484 6.75014 3.07271 9.99856C1.6056 12.3436 0.535267 15.3758 0.103077 18.4109C-0.0343591 19.3762 -0.0343591 22.6162 0.103077 23.5815C0.447285 25.9989 1.08682 28.1165 2.08601 30.1472C3.21647 32.4448 4.32376 33.9883 6.15184 35.8147C7.95996 37.6211 9.52902 38.7491 11.7425 39.8339C13.287 40.5908 14.2843 40.9593 15.85 41.3516C19.9587 42.3812 24.0794 42.1838 28.0935 40.7651C29.3103 40.3351 31.4344 39.2715 32.5264 38.5456C35.5247 36.5523 38.0026 33.8001 39.6432 30.6407C41.1276 27.7822 41.8703 24.946 41.9862 21.6938C42.1109 18.1935 41.3904 14.8622 39.8317 11.7309C38.8081 9.6747 37.6686 8.06321 36.0686 6.40922C34.2944 4.57491 32.5542 3.30936 30.2262 2.16018C27.7929 0.959058 25.5256 0.317911 22.8327 0.0693145C21.9958 -0.00791529 20.0931 -0.0245759 19.4235 0.0395224ZM29.4873 9.18965C31.2148 9.72263 32.3954 10.9385 32.8227 12.6249C32.992 13.2928 32.992 28.6996 32.8227 29.3676C32.384 31.0987 31.0964 32.3851 29.3636 32.8234C28.9929 32.9172 27.4821 32.9377 20.9433 32.9377H12.9748L12.3274 32.7379C10.5339 32.1844 9.31691 30.7301 9.0721 28.8478C8.97221 28.0799 8.97221 13.9125 9.0721 13.1446C9.3505 11.0042 10.9488 9.3808 13.0569 9.09732C13.328 9.0608 17.0432 9.03815 21.313 9.04693C28.0525 9.06072 29.1303 9.07951 29.4873 9.18965ZM26.1598 13.8149V15.8257H28.1725H30.1851V13.8149V11.8041H28.1725H26.1598V13.8149ZM19.8343 16.9655C18.7568 17.3139 17.9214 17.953 17.4083 18.8213C15.9537 21.2831 17.2112 24.3407 19.9742 25.0597C22.179 25.6334 24.4642 24.2588 25.0517 22.0055C25.4854 20.3421 24.762 18.4662 23.3167 17.5063C22.338 16.8562 20.8748 16.629 19.8343 16.9655ZM11.3737 23.6841L11.3745 28.8341L11.5666 29.2462C11.8129 29.7746 12.207 30.1656 12.7387 30.4088L13.1609 30.6018L21.0775 30.5798L28.994 30.5576L29.3336 30.3761C29.766 30.1451 30.1419 29.7696 30.3732 29.3375C30.5544 28.999 30.5549 28.9867 30.5777 23.7661L30.6006 18.534H28.8232C27.1636 18.534 27.0497 18.5436 27.1027 18.6777C27.5284 19.7524 27.6207 21.448 27.316 22.5966C26.5295 25.5619 24.0359 27.492 20.9844 27.4974C17.9472 27.5028 15.4392 25.5616 14.6528 22.5966C14.3481 21.448 14.4403 19.7524 14.866 18.6777C14.9191 18.5436 14.8052 18.534 13.1479 18.534H11.3729L11.3737 23.6841Z" fill="#828282"/>
</svg>
