<svg width="42" height="42" viewBox="0 0 42 42" fill="none" xmlns="http://www.w3.org/2000/svg">
<path fill-rule="evenodd" clip-rule="evenodd" d="M19.0055 0.0509934C13.7352 0.598971 9.06026 2.95148 5.45849 6.86787C0.382987 12.3868 -1.31764 20.3831 1.05344 27.5804C2.1283 30.8431 3.83246 33.574 6.32199 36.0233C9.61999 39.2679 13.6304 41.2135 18.4296 41.8971C19.4054 42.0361 22.6325 42.0337 23.6457 41.8934C28.4635 41.2261 32.6107 39.1678 35.9451 35.7891C39.2629 32.4273 41.2069 28.4442 41.8969 23.594C42.0344 22.6271 42.0344 19.3828 41.8969 18.4159C41.5032 15.649 40.6956 13.1512 39.4785 10.9364C38.5177 9.18808 37.3958 7.6907 35.9451 6.22085C32.6714 2.90365 28.6078 0.853685 23.9332 0.161131C22.9256 0.0117876 20.0091 -0.0533088 19.0055 0.0509934ZM30.8305 12.7381C31.1931 12.8898 31.3673 13.2381 31.3673 13.812C31.3673 14.3379 27.8952 30.842 27.7086 31.2032C27.4453 31.7126 26.8831 31.9059 26.3048 31.686C26.1123 31.6127 24.2125 30.2439 21.4376 28.1791L20.7492 27.6668L19.2557 29.0931C18.1677 30.1323 17.6896 30.5354 17.4945 30.5783C17.3473 30.6106 17.2082 30.6186 17.1856 30.5959C17.1629 30.5732 17.2236 29.3769 17.3205 27.9374L17.4966 25.3201L18.0733 24.7858C18.3905 24.492 20.615 22.4746 23.0167 20.3026C25.4183 18.1307 27.3833 16.2999 27.3833 16.2341C27.3833 16.1505 27.2958 16.1169 27.0925 16.1223C26.8574 16.1287 25.6383 16.8634 20.7166 19.9648C17.3698 22.0739 14.589 23.7995 14.537 23.7995C14.3103 23.7995 9.13139 22.1338 8.88562 21.9818C8.36121 21.6575 8.47276 21.1656 9.15776 20.7824C9.33618 20.6826 10.6451 20.1522 12.0666 19.6038C13.488 19.0554 16.1665 18.0219 18.0189 17.3072C19.8712 16.5926 23.1796 15.3149 25.3707 14.468C30.1744 12.6114 30.1293 12.628 30.3636 12.6243C30.4667 12.6227 30.6768 12.6739 30.8305 12.7381Z" fill="white"/>
</svg>
