<svg width="42" height="42" viewBox="0 0 42 42" fill="none" xmlns="http://www.w3.org/2000/svg">
<path fill-rule="evenodd" clip-rule="evenodd" d="M19.0391 0.0487652C11.9018 0.737177 5.52696 5.05852 2.29653 11.3981C1.15408 13.6403 0.479048 15.8022 0.109683 18.4018C-0.0540406 19.5547 -0.0302875 22.5371 0.152998 23.8224C0.478473 26.1049 1.15194 28.2678 2.18409 30.3456C4.23188 34.4678 7.50323 37.7363 11.6368 39.7903C18.3378 43.1199 26.2571 42.6621 32.5072 38.5837C34.951 36.9891 37.267 34.6251 38.8481 32.1114C39.449 31.156 40.3563 29.2987 40.7684 28.1806C41.1837 27.0538 41.6679 25.0982 41.8474 23.8224C42.0294 22.5301 42.054 19.5404 41.892 18.4018C41.4068 14.9912 40.3244 12.0876 38.5275 9.37584C37.7633 8.22257 37.0001 7.29212 35.9368 6.21745C32.6587 2.90434 28.581 0.849531 23.9183 0.161201C22.9128 0.0127923 20.0872 -0.0523366 19.0391 0.0487652ZM25.11 10.1662C26.1115 10.4354 26.701 10.6999 27.5334 11.2533C29.0265 12.246 30.1576 13.8145 30.7083 15.656C30.8766 16.219 30.8936 16.4741 30.9257 18.9357C30.9494 20.7543 30.9296 21.7976 30.8635 22.2094C30.3869 25.1754 28.1522 27.662 25.2333 28.4741C24.6302 28.6419 24.3582 28.6597 21.9457 28.6881L19.3156 28.7191L17.6262 30.3978C16.6971 31.321 15.9087 32.0764 15.8743 32.0764C15.8398 32.0764 15.7401 32.0382 15.6527 31.9914C15.5024 31.911 15.4936 31.7997 15.4927 29.9587L15.4918 28.011L15.004 27.7433C13.3509 26.836 11.9426 25.0994 11.3914 23.2885C11.0758 22.2517 11.0404 21.7687 11.0744 18.9651C11.1066 16.3147 11.1111 16.2535 11.3282 15.5452C12.259 12.5092 14.7079 10.4154 17.8339 9.98319C18.1063 9.94549 19.6793 9.92405 21.3293 9.93547C24.2553 9.95567 24.3485 9.96142 25.11 10.1662ZM21.5124 13.0255C21.2777 13.1197 21.2091 13.2908 21.3219 13.5012C21.3945 13.637 21.5305 13.6743 22.1296 13.7232C23.0498 13.7984 23.7208 14.0054 24.3404 14.4056C25.2073 14.9655 25.7796 15.6602 26.16 16.6147C26.3639 17.1259 26.3815 17.2629 26.3827 18.346C26.3838 19.3566 26.4032 19.5328 26.5208 19.5985C26.6967 19.697 26.8989 19.618 27.0122 19.4065C27.175 19.1025 27.1962 17.6397 27.0469 17.0056C26.6994 15.5292 25.6351 14.1858 24.2881 13.5236C23.341 13.0579 22.0216 12.8212 21.5124 13.0255ZM16.6033 14.3278C16.191 14.587 15.0977 15.7541 14.9629 16.079C14.6729 16.7779 14.8761 17.8191 15.5767 19.2231C16.2281 20.5289 16.9291 21.4547 18.2817 22.7958C19.8641 24.3645 21.2961 25.3263 22.6735 25.7453C23.3235 25.9431 24.1705 25.9693 24.5579 25.8036C24.7034 25.7414 25.1612 25.3432 25.5755 24.9186C26.7596 23.7048 26.7377 23.4794 25.295 22.0326C24.7638 21.5 24.2738 21.0293 24.2059 20.9867C23.9966 20.8552 23.4395 20.8986 23.1613 21.0682C23.0162 21.1565 22.8256 21.3689 22.7379 21.5401C22.1559 22.6742 21.0497 22.5237 19.6436 21.1189C18.8262 20.3021 18.4222 19.5929 18.4159 18.963C18.4108 18.4647 18.5952 18.2144 19.1923 17.9089C19.3957 17.8048 19.6269 17.6088 19.706 17.4732C19.8802 17.1746 19.8918 16.707 19.7323 16.4061C19.5923 16.142 17.8319 14.3938 17.5745 14.2632C17.3038 14.1259 16.8795 14.1541 16.6033 14.3278ZM21.5256 14.499C21.3044 14.5883 21.224 14.7968 21.3325 14.9993C21.4218 15.1662 21.4788 15.1841 21.8418 15.1603C22.1808 15.1381 22.9734 15.3202 23.3341 15.5034C23.8323 15.7563 24.4009 16.339 24.6573 16.8596C24.8368 17.224 24.8997 17.4866 24.9283 17.9912C24.9692 18.7119 25.034 18.8535 25.3227 18.8535C25.5843 18.8535 25.6854 18.6283 25.6854 18.045C25.6854 16.7563 24.8702 15.4581 23.6825 14.8554C23.0134 14.5158 21.9281 14.3365 21.5256 14.499ZM21.7018 16.0867C21.5315 16.3463 21.6506 16.6358 21.928 16.6365C22.6073 16.6382 23.3321 17.1839 23.4265 17.7647C23.5086 18.2693 23.6087 18.4429 23.8179 18.4429C24.2154 18.4429 24.3166 18.0377 24.0836 17.3781C23.814 16.6143 23.0839 16.0461 22.2213 15.9288C21.8744 15.8816 21.8267 15.8961 21.7018 16.0867Z" fill="#828282"/>
</svg>
