<svg width="48" height="56" viewBox="0 0 48 56" fill="none" xmlns="http://www.w3.org/2000/svg">
<path fill-rule="evenodd" clip-rule="evenodd" d="M5.24145 0.118467C4.93239 0.175682 4.25522 0.415593 3.73659 0.651565C2.52728 1.20184 1.23717 2.40697 0.697696 3.49067C-0.0494372 4.99117 0.000702111 3.22691 0.000702111 27.9959C0.000702111 52.7648 -0.0494372 51.0006 0.697696 52.5011C1.23774 53.5859 2.52784 54.7907 3.73513 55.3379C4.25297 55.5725 4.97746 55.818 5.34522 55.8832C5.80774 55.9653 11.5707 56.0013 24.0489 56C43.9853 55.9978 42.8666 56.0372 44.4067 55.2848C45.4931 54.7541 46.7847 53.51 47.2965 52.5011C48.05 51.0159 47.9993 52.7826 47.9993 27.9959C47.9993 3.21389 48.0498 4.97859 47.2979 3.49067C46.7958 2.49711 45.3961 1.15589 44.3486 0.664474C42.8453 -0.0405979 43.8756 -0.00734078 23.9437 0.00403664C12.99 0.0102723 5.58071 0.0555632 5.24145 0.118467ZM37.8751 7.20835C39.1755 7.60251 40.2554 8.65908 40.6273 9.90141C40.7698 10.3771 40.7962 10.9803 40.7675 13.0884C40.7322 15.6679 40.7294 15.6934 40.4236 16.298C39.8275 17.4767 38.6511 18.3406 37.3082 18.5861C36.4786 18.7377 11.5214 18.7377 10.6918 18.5861C9.36403 18.3434 8.16508 17.4619 7.57434 16.2939C7.27102 15.6945 7.26776 15.6634 7.23249 13.0884C7.20376 10.9803 7.23024 10.3771 7.37265 9.90141C7.73907 8.67768 8.81757 7.60918 10.0849 7.21437C10.7359 7.01154 11.2504 7.00345 23.96 6.99754C36.816 6.99152 37.1775 6.9971 37.8751 7.20835ZM14.867 23.3993C15.3776 23.5415 15.9753 24.1171 16.1134 24.5997C16.1744 24.8129 16.2246 25.2653 16.2249 25.6049L16.2256 26.2223L17.1193 26.2617C17.8051 26.292 18.087 26.3542 18.3305 26.5295C19.4358 27.3247 19.4358 28.667 18.3305 29.4622C18.087 29.6375 17.8051 29.6998 17.1193 29.7301L16.2256 29.7694L16.2249 30.3869C16.224 31.2925 16.0542 31.752 15.5604 32.1852C14.9539 32.7172 14.3642 32.8036 13.6592 32.464C12.8607 32.0792 12.62 31.6514 12.62 30.6165V29.7687L11.6706 29.7302C10.6504 29.6887 10.3381 29.5516 9.86655 28.9383C9.54081 28.5147 9.54081 27.477 9.86655 27.0534C10.3381 26.4401 10.6504 26.303 11.6706 26.2616L12.62 26.2231V25.3752C12.62 24.3516 12.8596 23.9162 13.6307 23.5379C14.1953 23.261 14.3199 23.247 14.867 23.3993ZM37.5524 27.1044C38.1298 27.4529 38.4641 28.1048 38.3906 28.7387C38.3264 29.291 38.0611 29.6908 37.5219 30.0471C37.1554 30.2893 37.093 30.2932 33.662 30.2932C30.6779 30.2932 30.1191 30.2676 29.7892 30.1157C29.2225 29.8546 28.9204 29.3766 28.8688 28.6594C28.8139 27.8979 29.1163 27.4022 29.8599 27.0345C30.3586 26.7879 30.4154 26.7847 33.7462 26.8157C37.0712 26.8466 37.1334 26.8514 37.5524 27.1044ZM11.8877 37.4174C12.2181 37.5063 12.617 37.804 13.3832 38.5333L14.4281 39.528L15.4724 38.5182C16.6363 37.3929 17.0307 37.2022 17.7865 37.3999C18.64 37.6229 19.1551 38.2374 19.1551 39.0325C19.1551 39.7214 18.985 40.003 17.9471 41.0328L16.9735 41.9989L17.9471 42.9649C18.985 43.9947 19.1551 44.2763 19.1551 44.9652C19.1551 45.7603 18.64 46.3748 17.7865 46.5978C17.0307 46.7955 16.6363 46.6048 15.4724 45.4795L14.4281 44.4697L13.3821 45.4657C12.2105 46.5812 11.7342 46.8042 10.9581 46.6005C10.3691 46.4459 10.062 46.2109 9.80177 45.7155C9.3237 44.8057 9.5122 44.3189 10.8491 43.0108L11.8832 41.9989L10.8491 40.9869C9.51715 39.6838 9.32426 39.1909 9.795 38.295C10.0584 37.7937 10.2368 37.6421 10.7881 37.4511C11.3129 37.2692 11.3352 37.2686 11.8877 37.4174ZM37.5524 37.6066C38.1298 37.9552 38.4641 38.6071 38.3906 39.2409C38.3264 39.7933 38.0611 40.193 37.5219 40.5493C37.1554 40.7915 37.093 40.7955 33.662 40.7955C30.6779 40.7955 30.1191 40.7699 29.7892 40.6179C29.2225 40.3568 28.9204 39.8788 28.8688 39.1616C28.8139 38.4001 29.1163 37.9044 29.8599 37.5367C30.3586 37.2901 30.4154 37.287 33.7462 37.3179C37.0712 37.3489 37.1334 37.3536 37.5524 37.6066ZM37.5219 43.4484C38.0611 43.8047 38.3264 44.2044 38.3906 44.7568C38.4641 45.3906 38.1298 46.0425 37.5524 46.3911C37.1334 46.6441 37.0712 46.6488 33.7462 46.6798C30.4154 46.7107 30.3586 46.7076 29.8599 46.461C29.1163 46.0933 28.8139 45.5976 28.8688 44.8361C28.9198 44.1275 29.217 43.6492 29.7709 43.3842C30.0871 43.2329 30.6479 43.2068 33.645 43.2048C37.0957 43.2022 37.1551 43.206 37.5219 43.4484Z" fill="white"/>
</svg>
