<svg width="148" height="122" viewBox="0 0 148 122" fill="none" xmlns="http://www.w3.org/2000/svg">
<path fill-rule="evenodd" clip-rule="evenodd" d="M44.8047 3.26842V6.53716L42.5645 6.72531C40.2092 6.9229 37.5703 7.71704 35.4931 8.8535C32.5389 10.4698 32.0819 11.0799 25.6826 21.9392L19.5331 32.374L18.7177 31.915C18.0462 31.5371 16.4205 31.4723 9.50351 31.5484L1.10451 31.6406L0.552109 32.3835C0.0586797 33.0473 0 33.676 0 38.3036C0 41.1511 0.127477 43.7399 0.282992 44.0564C0.765727 45.0381 2.22752 45.3272 6.70741 45.3272H11.0162L9.68909 47.1005C7.02653 50.6581 4.84671 55.4629 3.42741 60.9016C2.79379 63.3297 2.7672 63.9454 2.67036 78.3207C2.55734 95.1333 2.59925 95.6017 4.64495 100.353L5.78125 102.993L5.78414 108.848C5.78674 114.32 5.83126 114.807 6.46141 116.277C6.83228 117.143 7.6908 118.395 8.36952 119.061C10.5892 121.239 10.9092 121.311 18.3555 121.311C24.6851 121.311 25.0733 121.277 26.4492 120.587C28.4082 119.604 29.4026 118.516 30.3877 116.277C31.0048 114.874 31.2185 113.925 31.2185 112.58L31.2188 110.771H74H116.781L116.782 112.58C116.782 113.925 116.995 114.874 117.612 116.277C118.597 118.516 119.592 119.604 121.551 120.587C122.927 121.277 123.315 121.311 129.645 121.311C137.091 121.311 137.411 121.239 139.63 119.061C140.309 118.395 141.168 117.143 141.539 116.277C142.169 114.807 142.213 114.32 142.216 108.848L142.219 102.993L143.37 100.319C145.416 95.5665 145.442 95.277 145.329 78.4003C145.233 63.9397 145.207 63.3312 144.573 60.9016C143.153 55.4619 140.973 50.6578 138.311 47.1005L136.984 45.3272H141.293C145.772 45.3272 147.234 45.0381 147.717 44.0564C147.873 43.7399 148 41.1511 148 38.3036C148 33.6753 147.941 33.0473 147.448 32.3835L146.895 31.6406L138.27 31.6453C133.526 31.6482 129.384 31.7539 129.066 31.88C128.556 32.0833 127.821 30.9207 122.752 21.8888C116.515 10.7747 116.353 10.5613 112.694 8.68297C109.932 7.26523 107.593 6.62715 105.158 6.62715H103.195V3.31342V0L99.7988 0.0884118L96.4023 0.177139L96.32 3.40214L96.2376 6.62715H74H51.7624L51.68 3.40214L51.5977 0.177139L48.2012 0.0884118L44.8047 0V3.26842ZM109.478 15.8711L111.28 16.7769L118.077 28.857C121.816 35.5012 124.875 41.0048 124.875 41.0872C124.875 41.1696 101.981 41.237 74 41.237C46.0187 41.237 23.125 41.1756 23.125 41.1007C23.125 40.6341 37.0757 17.3773 37.6255 16.9277C37.9981 16.6228 39.0833 16.0234 40.0363 15.5958L41.7695 14.8183L74.7227 14.8917L107.676 14.965L109.478 15.8711ZM40.4688 73.6472V81.8308L26.0879 81.749L11.707 81.6675L11.6299 73.5657L11.5527 65.4638H26.0107H40.4688V73.6472ZM50.0078 73.6582V81.8525L47.9121 81.76L45.8164 81.6675L45.7392 73.5657L45.662 65.4638H47.8349H50.0078V73.6582ZM57.5234 73.6582V81.8525L55.4277 81.76L53.332 81.6675L53.2549 73.5657L53.1777 65.4638H55.3506H57.5234V73.6582ZM64.9717 73.5657L64.8945 81.6675L62.7988 81.76L60.7031 81.8525V73.6582V65.4638H62.876H65.0489L64.9717 73.5657ZM72.4873 73.5657L72.4102 81.6675L70.3145 81.76L68.2188 81.8525V73.6582V65.4638H70.3916H72.5645L72.4873 73.5657ZM79.7812 73.6582V81.8525L77.6855 81.76L75.5898 81.6675L75.5127 73.5657L75.4355 65.4638H77.6084H79.7812V73.6582ZM87.2969 73.6582V81.8525L85.2012 81.76L83.1055 81.6675L83.0283 73.5657L82.9511 65.4638H85.124H87.2969V73.6582ZM94.7451 73.5657L94.668 81.6675L92.5723 81.76L90.4766 81.8525V73.6582V65.4638H92.6494H94.8223L94.7451 73.5657ZM102.261 73.5657L102.184 81.6675L100.088 81.76L97.9922 81.8525V73.6582V65.4638H100.165H102.338L102.261 73.5657ZM136.37 73.5657L136.293 81.6675L121.912 81.749L107.531 81.8308V73.6472V65.4638H121.989H136.447L136.37 73.5657ZM33.8244 93.7023L38.7751 100.546L29.3627 100.629L19.9499 100.711L18.0947 99.7958C13.1995 97.3797 11.2492 92.9361 13.1419 88.5108L13.8484 86.859H21.3611H28.8736L33.8244 93.7023ZM134.736 88.1871C135.684 90.2111 135.8 93.0658 135.005 94.852C134.181 96.7064 132.144 98.6679 129.859 99.8084L128.05 100.711L118.629 100.629L109.208 100.546L114.169 93.7023L119.13 86.859H126.622H134.113L134.736 88.1871ZM104.059 91.4998C104.053 92.5406 103.251 95.3393 102.664 96.3688C101.785 97.9118 100.317 99.3314 98.8594 100.049C97.5855 100.676 97.0733 100.689 74 100.689C50.9267 100.689 50.4145 100.676 49.1406 100.049C47.6826 99.3314 46.2147 97.9118 45.3357 96.3688C44.7492 95.3393 43.9473 92.5406 43.941 91.4998C43.9378 90.9788 45.5606 90.9492 74 90.9492C102.439 90.9492 104.062 90.9788 104.059 91.4998Z" fill="#BDBDBD"/>
</svg>
