<svg width="16" height="16" viewBox="0 0 16 16" fill="none" xmlns="http://www.w3.org/2000/svg">
<path fill-rule="evenodd" clip-rule="evenodd" d="M15.2593 0.0356228C14.8637 0.151925 14.6574 0.354279 13.7466 1.51943C13.383 1.98448 12.568 3.01521 11.9354 3.80994C11.3029 4.60462 9.72262 6.59365 8.4238 8.22997L6.06231 11.2051L5.97828 11.1128C5.93208 11.0621 5.33384 10.3364 4.64887 9.50017C3.96394 8.66394 3.34857 7.9315 3.2814 7.87246C2.90211 7.53927 2.30776 7.40598 1.81835 7.54436C1.02882 7.76761 0.518055 8.56273 0.630786 9.39307C0.675961 9.72595 0.803813 10.0369 0.998352 10.2872C1.34452 10.7327 4.97765 15.1387 5.07533 15.2315C5.48978 15.6255 6.11203 15.7752 6.64464 15.6093C6.90594 15.5279 7.26546 15.2823 7.41818 15.0808C7.5164 14.9513 8.9684 12.5976 13.3824 5.41281C13.9028 4.56572 14.6427 3.36617 15.0265 2.74714C15.4104 2.12811 15.7637 1.53278 15.8116 1.42418C16.214 0.512442 15.9443 -0.165783 15.2593 0.0356228Z" fill="#BDBDBD"/>
</svg>
