<svg width="32" height="32" viewBox="0 0 32 32" fill="none" xmlns="http://www.w3.org/2000/svg">
<path fill-rule="evenodd" clip-rule="evenodd" d="M30.4596 0.813477C29.6368 1.03985 29.2077 1.43371 27.3132 3.70159C26.557 4.60677 24.8617 6.61299 23.546 8.15985C22.2303 9.70664 18.9434 13.5781 16.2418 16.7631L11.3299 22.554L11.1551 22.3743C11.059 22.2756 9.81469 20.8631 8.38996 19.2354C6.96531 17.6078 5.68534 16.1821 5.54562 16.0672C4.7567 15.4187 3.52045 15.1592 2.50249 15.4286C0.860261 15.8631 -0.202133 17.4107 0.0323469 19.0269C0.126312 19.6749 0.392245 20.2801 0.796884 20.7674C1.51692 21.6343 9.07382 30.2103 9.27701 30.391C10.139 31.1577 11.4333 31.4493 12.5412 31.1263C13.0847 30.9679 13.8325 30.4898 14.1501 30.0977C14.3544 29.8455 17.3746 25.2643 26.5557 11.2797C27.6382 9.63092 29.1771 7.2961 29.9755 6.09122C30.7739 4.88633 31.5087 3.72757 31.6084 3.51618C32.4455 1.74156 31.8844 0.421458 30.4596 0.813477Z" fill="#BDBDBD"/>
</svg>
