<svg width="16" height="16" viewBox="0 0 16 16" fill="none" xmlns="http://www.w3.org/2000/svg">
<path fill-rule="evenodd" clip-rule="evenodd" d="M15.2298 0.0363589C14.8184 0.155064 14.6039 0.3616 13.6566 1.55083C13.2785 2.02549 12.4309 3.07752 11.773 3.88866C11.1151 4.69977 9.47169 6.7299 8.12091 8.40003L5.66496 11.4367L5.57756 11.3425C5.52952 11.2907 4.90735 10.55 4.19498 9.69648C3.48266 8.84297 2.84267 8.09539 2.77281 8.03513C2.37835 7.69506 1.76023 7.55902 1.25124 7.70026C0.430131 7.92812 -0.101067 8.73967 0.0161734 9.58717C0.0631559 9.92692 0.196122 10.2443 0.398442 10.4998C0.758458 10.9544 4.53691 15.4515 4.6385 15.5463C5.06952 15.9483 5.71666 16.1012 6.27059 15.9318C6.54234 15.8488 6.91623 15.5981 7.07507 15.3925C7.17721 15.2602 8.68729 12.8579 13.2779 5.52466C13.8191 4.66007 14.5885 3.43573 14.9877 2.80391C15.387 2.17209 15.7544 1.56445 15.8042 1.45361C16.2227 0.523031 15.9422 -0.169209 15.2298 0.0363589Z" fill="#BDBDBD"/>
</svg>
