<svg width="122" height="122" viewBox="0 0 122 122" fill="none" xmlns="http://www.w3.org/2000/svg">
<path fill-rule="evenodd" clip-rule="evenodd" d="M56.2846 0.168238C37.1501 1.88419 20.6539 11.5733 10.1272 27.2788C5.16755 34.6791 1.6156 44.1503 0.337048 53.3845C-0.165461 57.0145 -0.0931277 66.0468 0.467705 69.6567C1.92175 79.0196 5.26459 87.6411 10.3411 95.1207C11.1332 96.2878 11.2524 96.6109 10.975 96.8405C10.7871 96.9961 10.3228 97.8148 9.94304 98.6597C8.59393 101.66 8.84098 105.332 10.5747 108.049C10.9763 108.678 12.8959 110.766 14.8405 112.689C18.9159 116.719 19.2436 116.858 20.9761 115.295C21.5188 114.806 22.0544 114.405 22.1665 114.405C22.2786 114.405 22.9573 115.006 23.675 115.74C24.393 116.474 25.6341 117.7 26.4334 118.465L27.8864 119.855L29.2895 118.471L30.6928 117.088L27.8286 114.22L24.9643 111.353L26.4247 109.895L27.8851 108.437L30.7573 111.297L33.6297 114.156L35.0178 112.753L36.4056 111.35L33.5581 108.492L30.7107 105.634L31.7182 104.563C33.4394 102.733 33.3304 102.469 29.0962 98.2013C26.0205 95.1012 25.1775 94.3999 23.5699 93.6049C21.7921 92.7257 21.5277 92.6677 19.3674 92.6824C17.6421 92.6941 16.7204 92.834 15.7047 93.2377L14.3472 93.7773L12.8284 91.4422C9.84116 86.8494 7.17631 80.7302 5.73755 75.1601C4.4483 70.168 4.08612 67.0682 4.08485 61.0121C4.08358 54.9044 4.40423 52.3065 5.85802 46.6468C10.9705 26.7431 26.9384 10.8914 46.929 5.87547C52.3738 4.50936 54.9946 4.19739 60.9964 4.20044C68.3833 4.20426 73.649 5.0644 79.9305 7.29344C81.3092 7.78262 82.5304 8.08442 82.6445 7.96441C83.0892 7.49659 84.1238 4.68327 83.9261 4.47961C83.446 3.98611 76.6842 1.95208 73.241 1.26585C67.6773 0.156797 61.134 -0.26679 56.2846 0.168238ZM92.6394 3.61083L91.3059 4.9421L94.1671 7.80678L97.0285 10.6712L95.5681 12.1291L94.1077 13.587L91.2356 10.7276L88.3632 7.86831L86.9751 9.27153L85.5872 10.6745L88.4347 13.5326L91.2822 16.3906L90.2746 17.4613C88.5287 19.3171 88.6385 19.5746 93.0388 23.9425C96.2028 27.083 97.0953 27.8203 98.5784 28.5206C100.181 29.277 100.561 29.3537 102.639 29.3405C104.353 29.3296 105.273 29.19 106.288 28.7865L107.646 28.247L109.164 30.582C111 33.405 113.343 38.1194 114.603 41.5271C118.277 51.4629 118.997 62.8341 116.623 73.4372C114.245 84.0546 109.09 93.3692 101.253 101.205C92.4349 110.023 81.7371 115.407 69.1374 117.369C65.1245 117.994 56.6379 117.997 52.721 117.376C49.0371 116.792 45.1551 115.828 42.0623 114.731C40.6837 114.242 39.4624 113.94 39.3483 114.06C39.0333 114.391 37.8525 117.304 37.9618 117.481C38.0142 117.566 39.0641 117.99 40.2942 118.423C60.5288 125.552 82.4286 121.898 99.2003 108.597C102.613 105.891 106.899 101.49 109.557 97.9643C116.005 89.41 119.863 80.2103 121.533 69.4025C122.16 65.3474 122.155 56.4523 121.523 52.3675C120.084 43.0578 116.707 34.3475 111.652 26.9035C110.86 25.7365 110.74 25.4133 111.018 25.1837C111.206 25.0281 111.67 24.2094 112.05 23.3645C113.399 20.3638 113.152 16.6922 111.418 13.9752C111.017 13.3459 109.097 11.258 107.152 9.33509C103.056 5.28509 102.756 5.16051 100.968 6.77273L99.9331 7.70635L97.2066 4.99295C95.7072 3.50048 94.366 2.27956 94.2267 2.27956C94.0871 2.27956 93.3729 2.87858 92.6394 3.61083ZM57.176 22.5245C50.3332 23.3933 44 25.7507 38.8068 29.3624C36.0671 31.2675 31.2004 36.1258 29.292 38.8608C26.2678 43.1945 23.9269 48.8133 22.8705 54.2744C22.2554 57.4549 22.2579 64.5915 22.8753 67.7498C24.4974 76.0479 27.8398 82.3567 33.7275 88.234C39.6063 94.103 46.1229 97.5397 54.2471 99.0561C57.7644 99.7126 64.2285 99.7126 67.7458 99.0561C75.8965 97.5349 82.3756 94.1182 88.2654 88.2355C94.1454 82.3628 97.5873 75.8587 99.1061 67.7498C99.7637 64.2386 99.7637 57.7856 99.1061 54.2744C97.5871 46.1642 94.1444 39.6589 88.2654 33.7902C82.4754 28.01 76.3765 24.7312 68.3825 23.1009C66.02 22.6191 59.1955 22.268 57.176 22.5245ZM62.4087 39.262L63.034 39.8859V47.3981V54.91H68.5213C74.0082 54.91 74.0089 54.91 74.6339 55.5342C74.9778 55.8775 75.2592 56.4498 75.2592 56.8063C75.2592 57.7178 62.6634 82.7859 62.0374 83.1202C61.2094 83.5626 60.2448 83.422 59.5842 82.7622L58.9589 82.1383V74.6261V67.1142H53.4715C47.9847 67.1142 47.9839 67.1142 47.3589 66.49C47.0151 66.1468 46.7336 65.5744 46.7336 65.218C46.7336 64.3751 59.3106 39.2628 59.9058 38.917C60.6964 38.4575 61.7483 38.6025 62.4087 39.262Z" fill="#BDBDBD"/>
</svg>
