<svg width="28" height="32" viewBox="0 0 28 32" fill="none" xmlns="http://www.w3.org/2000/svg">
<path fill-rule="evenodd" clip-rule="evenodd" d="M3.05751 0.0676955C2.87723 0.10039 2.48221 0.237482 2.17968 0.372323C1.47424 0.686765 0.721684 1.37541 0.406989 1.99467C-0.0288384 2.8521 0.000409565 1.84395 0.000409565 15.9976C0.000409565 30.1513 -0.0288384 29.1432 0.406989 30.0006C0.722013 30.6205 1.47457 31.309 2.17882 31.6217C2.4809 31.7557 2.90352 31.896 3.11805 31.9333C3.38785 31.9802 6.74959 32.0007 14.0285 32C25.6581 31.9987 25.0055 32.0212 25.9039 31.5913C26.5376 31.2881 27.2911 30.5771 27.5897 30.0006C28.0292 29.1519 27.9996 30.1615 27.9996 15.9976C27.9996 1.83651 28.029 2.84491 27.5904 1.99467C27.2976 1.42692 26.4811 0.660509 25.87 0.379699C24.9931 -0.0231988 25.5941 -0.00419473 13.9671 0.00230665C7.57747 0.00586991 3.25541 0.0317504 3.05751 0.0676955ZM22.0938 4.11906C22.8524 4.34429 23.4823 4.94804 23.6993 5.65795C23.7824 5.92975 23.7978 6.27445 23.781 7.47908C23.7605 8.95308 23.7588 8.96765 23.5804 9.31316C23.2327 9.98668 22.5464 10.4803 21.7631 10.6206C21.2792 10.7073 6.7208 10.7073 6.23686 10.6206C5.46235 10.482 4.76296 9.97824 4.41836 9.31079C4.24143 8.96828 4.23952 8.95052 4.21895 7.47908C4.20219 6.27445 4.21764 5.92975 4.30071 5.65795C4.51445 4.95867 5.14358 4.34811 5.88286 4.12249C6.26263 4.0066 6.56273 4.00197 13.9767 3.99859C21.476 3.99516 21.6869 3.99834 22.0938 4.11906ZM8.6724 13.371C8.97027 13.4523 9.31894 13.7812 9.39946 14.057C9.43508 14.1788 9.46433 14.4373 9.46452 14.6314L9.46492 14.9842L9.98626 15.0067C10.3863 15.024 10.5508 15.0596 10.6928 15.1597C11.3376 15.6141 11.3376 16.3812 10.6928 16.8356C10.5508 16.9357 10.3863 16.9713 9.98626 16.9886L9.46492 17.0111L9.46452 17.3639C9.464 17.8814 9.36495 18.144 9.07687 18.3915C8.72314 18.6955 8.37913 18.7449 7.96788 18.5509C7.50209 18.331 7.36169 18.0865 7.36169 17.4951V17.0107L6.80782 16.9887C6.21274 16.965 6.03055 16.8866 5.75549 16.5362C5.56547 16.2941 5.56547 15.7011 5.75549 15.4591C6.03055 15.1086 6.21274 15.0303 6.80782 15.0066L7.36169 14.9846V14.5001C7.36169 13.9152 7.50143 13.6664 7.95125 13.4502C8.28061 13.292 8.3533 13.284 8.6724 13.371ZM21.9056 15.4882C22.2424 15.6874 22.4374 16.0599 22.3945 16.4221C22.3571 16.7377 22.2023 16.9662 21.8877 17.1698C21.674 17.3082 21.6376 17.3104 19.6362 17.3104C17.8954 17.3104 17.5695 17.2958 17.3771 17.209C17.0465 17.0597 16.8702 16.7866 16.8401 16.3768C16.8081 15.9416 16.9845 15.6584 17.4183 15.4483C17.7092 15.3074 17.7423 15.3056 19.6853 15.3232C21.6248 15.3409 21.6611 15.3436 21.9056 15.4882ZM6.93448 21.3813C7.12725 21.4322 7.35992 21.6023 7.80685 22.019L8.4164 22.5874L9.02554 22.0104C9.70449 21.3673 9.9346 21.2584 10.3755 21.3713C10.8734 21.4988 11.1738 21.85 11.1738 22.3043C11.1738 22.6979 11.0746 22.8589 10.4691 23.4473L9.90121 23.9993L10.4691 24.5514C11.0746 25.1398 11.1738 25.3007 11.1738 25.6944C11.1738 26.1487 10.8734 26.4999 10.3755 26.6273C9.9346 26.7403 9.70449 26.6313 9.02554 25.9883L8.4164 25.4113L7.8062 25.9804C7.12278 26.6178 6.84496 26.7452 6.39224 26.6288C6.04863 26.5405 5.86952 26.4062 5.7177 26.1232C5.43882 25.6032 5.54878 25.3251 6.32862 24.5776L6.93185 23.9993L6.32862 23.4211C5.55167 22.6764 5.43915 22.3948 5.71375 21.8828C5.86742 21.5964 5.97146 21.5098 6.29306 21.4006C6.59921 21.2967 6.61222 21.2963 6.93448 21.3813ZM21.9056 21.4895C22.2424 21.6887 22.4374 22.0612 22.3945 22.4234C22.3571 22.739 22.2023 22.9674 21.8877 23.171C21.674 23.3094 21.6376 23.3117 19.6362 23.3117C17.8954 23.3117 17.5695 23.2971 17.3771 23.2102C17.0465 23.061 16.8702 22.7879 16.8401 22.3781C16.8081 21.9429 16.9845 21.6597 17.4183 21.4496C17.7092 21.3086 17.7423 21.3068 19.6853 21.3245C21.6248 21.3422 21.6611 21.3449 21.9056 21.4895ZM21.8877 24.8276C22.2023 25.0312 22.3571 25.2597 22.3945 25.5753C22.4374 25.9375 22.2424 26.31 21.9056 26.5092C21.6611 26.6538 21.6248 26.6565 19.6853 26.6742C17.7423 26.6919 17.7092 26.69 17.4183 26.5491C16.9845 26.339 16.8081 26.0558 16.8401 25.6206C16.8699 25.2157 17.0432 24.9424 17.3663 24.7909C17.5508 24.7045 17.8779 24.6896 19.6263 24.6884C21.6392 24.687 21.6738 24.6891 21.8877 24.8276Z" fill="#828282"/>
</svg>
