<svg width="84" height="84" viewBox="0 0 84 84" fill="none" xmlns="http://www.w3.org/2000/svg">
<path fill-rule="evenodd" clip-rule="evenodd" d="M38.0394 0.0985094C29.8722 0.888691 21.7768 4.20959 15.429 9.37386C13.5618 10.8929 10.6055 13.8728 9.11636 15.7372C5.35098 20.451 2.26537 26.8272 0.985659 32.538C0.182018 36.1252 0 37.869 0 41.984C0 46.0991 0.182018 47.8429 0.985659 51.4301C2.2933 57.2654 5.4594 63.7327 9.34996 68.5151C10.869 70.3823 13.8488 73.3386 15.7132 74.8278C20.4276 78.5937 26.808 81.6812 32.5138 82.958C40.4883 84.7424 48.9432 84.2228 56.3473 81.4936C58.1417 80.8322 61.7085 79.1518 63.208 78.2616L64.1682 77.6915L73.2895 80.134C78.3062 81.4773 82.4445 82.543 82.4854 82.5019C82.5264 82.4609 81.4826 78.4086 80.166 73.4967C78.8493 68.5847 77.772 64.4419 77.772 64.2905C77.772 64.139 78.0379 63.5611 78.3632 63.0063C80.0201 60.1791 81.7111 56.1041 82.548 52.9221C85.1973 42.8478 84.2114 32.7662 79.671 23.5027C77.4777 19.028 75.033 15.6238 71.5035 12.1301C68.0382 8.69999 64.8639 6.44592 60.4408 4.27448C56.2976 2.24038 52.4619 1.04081 47.8736 0.344106C45.8103 0.0308266 40.1893 -0.109632 38.0394 0.0985094ZM43.6024 19.8466C46.3624 20.6841 47.8904 23.8721 46.8676 26.6588C46.3923 27.9535 45.0009 29.3352 43.7554 29.7494C41.7379 30.4201 39.8149 29.9877 38.3362 28.5311C34.3772 24.6309 38.2612 18.2257 43.6024 19.8466ZM47.2165 44.6125V56.4406H49.1878H51.1592V60.4654V64.4902H41.9597H32.7602V60.4654V56.4406H34.7315H36.7028V48.5552V40.6698H34.7315H32.7602V36.7271V32.7844H39.9884H47.2165V44.6125Z" fill="white"/>
</svg>
