<svg width="75" height="122" viewBox="0 0 75 122" fill="none" xmlns="http://www.w3.org/2000/svg">
<path fill-rule="evenodd" clip-rule="evenodd" d="M32.169 0.3297C27.9647 0.87855 23.5479 2.19584 19.7302 4.03933C17.4091 5.16015 16.8884 5.81391 16.5681 8.01074C16.4389 8.89529 16.2266 10.3373 16.0961 11.2151C15.9657 12.093 15.7353 12.9053 15.5843 13.0205C15.4333 13.1354 12.6677 13.8459 9.4385 14.5991C2.25604 16.2747 2.19005 16.2955 1.20179 17.1762C-1.29256 19.3995 0.360792 23.5738 3.73161 23.5636C4.28703 23.5619 6.27388 23.1962 8.14682 22.7508C10.0198 22.3054 11.5792 21.9678 11.6123 22.0005C11.6456 22.0331 10.9815 22.8822 10.1367 23.8871C8.35818 26.0034 8.29266 25.4657 10.7952 29.2888C14.6675 35.2041 18.4039 38.9669 23.1357 41.7152C32.9711 47.4283 46.7615 46.5232 56.0156 39.5575C59.4771 36.952 61.9834 34.1076 65.621 28.6565C67.3307 26.0947 67.5106 25.7256 67.183 25.4497C66.4493 24.8315 64.7255 22.3745 65.0259 22.3748C65.1948 22.375 66.423 22.6433 67.7553 22.9708C71.5505 23.9045 72.8958 23.7355 74.2001 22.1616C75.6931 20.3606 75.0209 17.5985 72.8091 16.4452C72.5292 16.2993 69.5752 15.5332 66.2446 14.7429C62.9139 13.9527 60.1095 13.1755 60.0123 13.016C59.7962 12.6609 59.005 9.63679 58.6394 7.76874C58.3012 6.04017 57.5802 5.15562 55.742 4.21361C48.975 0.745748 40.1359 -0.710779 32.169 0.3297ZM10.3913 41.971C10.1069 43.2788 9.52516 50.3256 9.2795 55.4408C8.86405 64.0905 9.43732 73.0526 10.8476 79.9538C11.7917 84.5734 11.5822 84.1862 15.3762 88.3291C17.2823 90.4105 20.24 93.6605 21.949 95.5514L25.0561 98.9895V104.986C25.0561 109.807 25.1303 111.235 25.4347 112.276C27.4241 119.079 34.0424 123.183 40.6263 121.696C41.6103 121.474 43.0805 120.958 43.8931 120.548C45.7719 119.603 48.4048 116.952 49.4231 114.98C50.6864 112.534 50.8825 111.156 50.8862 104.7L50.8897 98.9291L53.6492 95.8826C55.1668 94.2072 58.0349 91.0643 60.0224 88.8984C62.016 86.7259 63.8235 84.5331 64.0541 84.007C65.1079 81.6041 66.2429 74.0351 66.6579 66.6462C66.9803 60.9059 66.6985 52.9874 65.9188 45.8812C65.6612 43.5327 65.4505 41.5729 65.4505 41.5261C65.4505 41.4792 64.4259 42.3556 63.1736 43.4736C59.847 46.4431 56.5593 48.5343 51.8761 50.6592C51.8376 50.6766 52.0703 52.608 52.3937 54.951C54.6316 71.1664 54.6051 83.3885 52.3125 92.5628C50.9306 98.092 50.9304 98.0904 50.909 86.5009C50.8876 74.981 50.851 74.6338 49.3463 71.727C48.8923 70.8498 48.0147 69.6062 47.3961 68.9632L46.2714 67.7942L45.8728 63.741C45.4999 59.9469 44.5762 52.8603 44.4341 52.7029C44.3992 52.6641 43.4886 52.7444 42.4109 52.8818C39.9645 53.1931 36.1225 53.1993 33.5251 52.8963C32.4351 52.769 31.5063 52.7025 31.461 52.7482C31.3175 52.8941 30.2672 61.11 29.9572 64.513C29.6759 67.5996 29.6228 67.8171 29.0267 68.3263C28.0678 69.1453 26.2975 71.9096 25.7029 73.5163C25.189 74.9051 25.17 75.2671 25.0561 85.9024C24.9283 97.8143 24.9434 97.727 23.7797 93.3779C21.2698 83.9977 21.2243 70.4571 23.6475 53.9055C23.9077 52.1269 24.0934 50.6556 24.0601 50.6363C24.0265 50.6167 23.2426 50.2686 22.318 49.8626C18.9662 48.3908 15.2353 45.8516 12.0886 42.9002C10.612 41.5154 10.5035 41.456 10.3913 41.971Z" fill="#BDBDBD"/>
</svg>
