<svg width="16" height="28" viewBox="0 0 16 28" fill="none" xmlns="http://www.w3.org/2000/svg">
<path fill-rule="evenodd" clip-rule="evenodd" d="M1.81361 0.111967C1.57918 0.204327 1.40143 0.350253 0.900782 0.86146C0.132954 1.64542 0.0283765 1.83266 0.0264033 2.42643C0.0253367 2.74548 0.0524279 2.92352 0.126235 3.08302C0.194869 3.23146 1.90262 5.02328 5.43218 8.65048L10.6369 13.999L5.42642 19.3474C1.37328 23.5076 0.191989 24.7503 0.108263 24.9419C0.0363223 25.1064 0.000432048 25.306 5.41768e-06 25.5437C-0.00106116 26.1048 0.154872 26.382 0.89513 27.1353C1.41583 27.6654 1.56883 27.7889 1.82684 27.8877C2.21576 28.0367 2.52358 28.0374 2.91603 27.8901C3.21163 27.7792 3.48926 27.5031 9.47509 21.3653C16.3899 14.2749 15.9959 14.7201 15.9959 13.9988C15.9959 13.2774 16.3899 13.7226 9.47509 6.63197C3.48627 0.490872 3.21179 0.217842 2.91603 0.107152C2.53035 -0.0372417 2.18867 -0.0357644 1.81361 0.111967Z" fill="#828282"/>
</svg>
