<svg width="113" height="132" viewBox="0 0 113 132" fill="none" xmlns="http://www.w3.org/2000/svg">
<path fill-rule="evenodd" clip-rule="evenodd" d="M13.9753 0.405028C13.6479 0.765454 13.6071 2.74625 13.6071 18.3232V35.8363H9.62249C4.39986 35.8363 4.70035 35.5373 4.70035 40.7348V44.6021L3.46981 44.6026C2.01942 44.6028 0.727012 45.236 0.31238 46.149C-0.104127 47.0657 -0.104127 61.2167 0.31238 62.1335C0.890145 63.4056 1.87973 63.6796 5.89596 63.6799C9.88735 63.6804 10.7797 63.4796 11.4235 62.4364C11.8107 61.8092 11.8492 61.0682 11.8492 54.2451C11.8492 46.3036 11.7953 45.8651 10.7272 45.1314C10.448 44.9395 9.50201 44.7263 8.6247 44.6572L7.02993 44.5317L7.09556 41.5374L7.16142 38.5434L10.3842 38.4717L13.6071 38.4001V63.1508V87.9019L12.8936 88.3077C12.501 88.531 11.9741 89.085 11.7226 89.539C11.2925 90.3145 11.2648 90.8905 11.2641 99.0785C11.2632 108.184 11.3098 108.651 12.3116 109.566C12.6508 109.876 12.6236 109.983 12.0341 110.659L11.3804 111.409L11.3143 115.84C11.2536 119.911 11.2869 120.339 11.7224 121.111C12.6583 122.77 13.2871 122.976 17.4159 122.977L21.1075 122.978V126.424C21.1075 129.568 21.152 129.931 21.6156 130.58C22.5544 131.893 23.1574 132.001 29.4793 132C32.674 131.999 35.6648 131.883 36.1256 131.743C36.5864 131.602 37.2193 131.187 37.532 130.821C38.068 130.194 38.1053 129.95 38.1817 126.567L38.2628 122.978H56.5H74.7372L74.8183 126.567C74.8947 129.95 74.932 130.194 75.468 130.821C75.7807 131.187 76.4136 131.602 76.8744 131.743C77.3352 131.883 80.326 131.999 83.5207 132C91.8649 132.002 91.8726 131.997 91.8848 126.523L91.8925 122.978L95.5841 122.977C99.7129 122.976 100.342 122.77 101.278 121.111C101.713 120.339 101.746 119.911 101.686 115.84L101.62 111.409L100.966 110.659C100.376 109.983 100.349 109.876 100.688 109.566C101.69 108.651 101.737 108.184 101.736 99.0785C101.735 90.8905 101.707 90.3145 101.277 89.539C101.026 89.085 100.499 88.531 100.106 88.3077L99.3929 87.9019V63.1508V38.4001L102.616 38.4717L105.839 38.5434L105.904 41.5374L105.97 44.5317L104.375 44.6572C103.498 44.7263 102.552 44.9395 102.273 45.1314C101.205 45.8651 101.151 46.3036 101.151 54.2451C101.151 61.0682 101.189 61.8092 101.576 62.4364C102.22 63.4796 103.113 63.6804 107.104 63.6799C111.12 63.6796 112.11 63.4056 112.688 62.1335C113.104 61.2167 113.104 47.0657 112.688 46.149C112.273 45.236 110.981 44.6028 109.53 44.6026L108.3 44.6021V40.7348C108.3 35.5373 108.6 35.8363 103.378 35.8363H99.3929V18.3232C99.3929 2.74625 99.3521 0.765454 99.0247 0.405028C98.6926 0.0399614 94.5113 0 56.5 0C18.4887 0 14.3074 0.0399614 13.9753 0.405028ZM97.049 26.0394V35.8363H95.7805H94.512L94.4328 31.7327C94.3541 27.6499 94.3501 27.6236 93.6474 26.5119C93.2349 25.8594 92.5073 25.1535 91.8984 24.8147L90.8556 24.2346H56.5H22.1444L21.1016 24.8147C20.4927 25.1535 19.7651 25.8594 19.3526 26.5119C18.6499 27.6236 18.6459 27.6499 18.5672 31.7327L18.488 35.8363H17.2195H15.951V26.0394V16.2424H56.5H97.049V26.0394ZM52.9842 47.8248V61.1022H40.5616H28.1391V47.8248V34.5473H40.5616H52.9842V47.8248ZM84.8609 47.8248V61.1022H72.4383H60.0158V47.8248V34.5473H72.4383H84.8609V47.8248ZM18.5292 63.0359V87.6572H17.2401H15.951V63.0359V38.4145H17.2401H18.5292V63.0359ZM97.049 63.0359V87.6572H95.7599H94.4708V63.0359V38.4145H95.7599H97.049V63.0359ZM75.251 82.6298V85.5947H56.5H37.749V82.6298V79.665H56.5H75.251V82.6298ZM75.251 91.1377V94.1026H56.5H37.749V91.1377V88.1729H56.5H75.251V91.1377ZM32.5925 99.6456V104.931H24.6233H16.6541V99.6456V94.3604H24.6233H32.5925V99.6456ZM96.3459 99.6456V104.931H88.3767H80.4075V99.6456V94.3604H88.3767H96.3459V99.6456ZM75.251 99.9035V102.868H56.5H37.749V99.9035V96.9386H56.5H75.251V99.9035ZM75.251 108.025V110.345H56.5H37.749V108.025V105.704H56.5H75.251V108.025ZM21.5983 113.065C22.5689 113.617 23.2151 114.883 23.216 116.235C23.2172 117.72 22.6284 118.746 21.3979 119.401C20.101 120.092 19.0196 119.891 17.8882 118.751C17.1637 118.02 17.038 117.718 16.9565 116.511C16.8848 115.447 16.9701 114.926 17.3141 114.325C18.1666 112.834 20.162 112.248 21.5983 113.065ZM30.4117 113.17C31.4491 113.865 31.9287 114.772 31.9465 116.072C31.9688 117.693 31.3542 118.8 30.0908 119.415C28.4049 120.235 26.7487 119.6 25.9077 117.812C24.4665 114.746 27.7367 111.376 30.4117 113.17ZM85.7839 113.136C87.2399 113.995 87.8542 116.191 87.0923 117.812C85.5134 121.17 81.0005 119.922 81.0526 116.142C81.0894 113.453 83.6081 111.853 85.7839 113.136ZM94.4044 113.096C95.6408 113.741 96.1577 114.818 96.0435 116.511C95.962 117.718 95.8363 118.02 95.1118 118.751C93.9804 119.891 92.899 120.092 91.6021 119.401C90.3847 118.753 89.783 117.723 89.783 116.287C89.783 113.481 92.0901 111.888 94.4044 113.096Z" fill="#BDBDBD"/>
</svg>
