<svg width="123" height="122" viewBox="0 0 123 122" fill="none" xmlns="http://www.w3.org/2000/svg">
<path fill-rule="evenodd" clip-rule="evenodd" d="M82.157 1.56414C80.8174 5.06541 78.9697 6.93953 75.6726 8.14059C74.6903 8.49884 73.9362 8.87238 73.9975 8.97131C74.0585 9.07 74.8066 9.40506 75.66 9.71568C79.0465 10.9488 80.9044 12.8123 82.1516 16.2275C82.5286 17.2598 82.8619 18.1046 82.8923 18.1046C82.9227 18.1046 83.3217 17.133 83.779 15.9457C84.9226 12.9769 86.7153 11.1265 89.5652 9.97228C90.6523 9.53212 91.6306 9.089 91.7391 8.98785C91.8476 8.88644 91.1014 8.48527 90.0808 8.09593C86.6951 6.80507 85.0951 5.23639 83.8541 1.99072C83.481 1.01517 83.0978 0.124742 83.0027 0.0119882C82.9073 -0.101012 82.5269 0.597713 82.157 1.56414ZM115.007 2.43754C113.728 5.90107 112.481 7.29852 109.773 8.29776L108.126 8.90569L109.593 9.45317C112.229 10.4364 113.568 11.7334 114.543 14.2453L115.2 15.9374L115.955 14.1318C116.899 11.8728 118.205 10.5195 120.203 9.73024C121.018 9.40851 121.772 9.06877 121.881 8.97477C121.989 8.88077 121.387 8.55237 120.543 8.24496C118.58 7.52995 116.859 5.95658 116.139 4.21742C115.847 3.50981 115.513 2.70894 115.398 2.43754L115.189 1.94409L115.007 2.43754ZM102.48 15.1982C101.478 18.0678 99.9895 19.6296 97.3346 20.5963L95.8463 21.1383L97.4401 21.8099C98.3169 22.1792 99.3906 22.7349 99.8262 23.0448C100.729 23.6865 101.894 25.4072 102.312 26.716C102.764 28.1312 102.924 28.096 103.539 26.4456C104.332 24.3201 106.054 22.6048 108.162 21.8422C109.014 21.5341 109.647 21.1775 109.568 21.0502C109.489 20.9227 109.282 20.8186 109.108 20.8186C108.363 20.8186 105.69 19.2252 104.912 18.318C104.447 17.7755 103.819 16.6728 103.518 15.8675C103.217 15.0625 102.922 14.4037 102.864 14.4037C102.805 14.4037 102.633 14.7612 102.48 15.1982ZM52.2451 28.7118C45.2891 29.0343 36.3429 29.9318 31.2603 30.8173C27.3911 31.4914 23.423 34.136 21.5876 37.2638C21.2315 37.8705 19.5747 41.5844 17.9058 45.517C16.2372 49.4495 14.6784 52.9614 14.4423 53.3214L14.0129 53.9759L12.7304 51.26C11.0348 47.6694 11.1721 47.7252 6.1612 48.5909C4.06611 48.9529 2.09257 49.4115 1.77534 49.6099C1.05491 50.0607 0.498767 51.3542 0.500002 52.5765C0.50099 53.5898 1.19573 54.9431 1.90628 55.3152C2.15137 55.4437 4.40804 56.0144 6.92117 56.5838C9.43429 57.153 11.5111 57.6396 11.5363 57.6645C11.5613 57.6896 10.4641 59.4295 9.09779 61.5311C6.38628 65.702 5.49141 67.4516 4.6598 70.2065C4.14443 71.9138 4.1091 72.5642 4.01867 81.9447L3.92306 91.8754H61.5236H119.124L119.028 81.9447C118.938 72.5642 118.903 71.9138 118.387 70.2065C117.553 67.4424 116.66 65.6946 113.954 61.5292C112.587 59.4263 111.491 57.6842 111.518 57.6576C111.544 57.6309 113.565 57.1589 116.007 56.6087C118.45 56.0583 120.699 55.499 121.004 55.3657C122.858 54.5587 123.036 50.7152 121.272 49.6091C120.955 49.4103 119.008 48.9605 116.945 48.6097C111.884 47.7483 111.999 47.702 110.329 51.2565L109.044 53.9912L108.602 53.3174C108.359 52.9468 106.781 49.397 105.095 45.4289C103.41 41.4606 101.63 37.6107 101.139 36.8732C99.2834 34.082 96.2443 31.9056 93.0377 31.0715C91.0399 30.5519 82.576 29.5196 76.7604 29.0863C70.6347 28.6299 58.1319 28.4387 52.2451 28.7118ZM76.562 33.0374C83.0519 33.5207 91.1343 34.5641 92.7874 35.1321C93.5244 35.3855 94.6226 35.9329 95.2279 36.3487C97.2414 37.7321 98.0355 39.0192 100.691 45.2049L103.197 51.0424L82.3604 51.1055C70.9001 51.1401 52.1455 51.1401 40.6838 51.1055L19.8438 51.0424L22.2213 45.4879C23.5287 42.4329 24.8532 39.5216 25.1648 39.0185C25.9423 37.7619 27.7253 36.2448 29.2969 35.5024C31.729 34.3534 43.2871 33.0231 54.8529 32.5612C58.9222 32.3986 71.7692 32.6804 76.562 33.0374ZM22.4552 70.3113C24.5434 70.5092 26.4601 70.7821 26.7144 70.9181C26.9686 71.054 27.7169 71.9666 28.3773 72.9466C29.9889 75.3371 33.1933 81.02 33.0246 81.1882C32.863 81.3498 16.8538 79.1421 15.4587 78.7659C14.214 78.4303 12.9796 77.2007 12.632 75.95C12.021 73.7527 12.463 70.9985 13.5657 70.1322C14.2646 69.5833 14.9023 69.5961 22.4552 70.3113ZM109.244 69.9368C110.439 70.5753 111.051 73.6641 110.427 75.9066C110.073 77.1797 108.928 78.4121 107.798 78.736C106.453 79.1214 90.2019 81.3673 90.0262 81.1919C89.6793 80.8455 95.493 71.3668 96.3253 70.922C96.5974 70.7764 98.6341 70.4922 100.852 70.2904C108.152 69.6252 108.624 69.6052 109.244 69.9368ZM45.4645 72.6456C58.5047 73.6283 65.4355 73.5743 80.8965 72.3688C84.282 72.105 87.0822 71.9195 87.1195 71.9568C87.1568 71.994 86.0342 74.4647 84.6244 77.4471L82.0616 82.8699L71.7779 83.4519L61.4939 84.0342L51.2326 83.4519L40.9714 82.8699L38.7545 78.1821C37.5352 75.6039 36.3782 73.1206 36.1838 72.6639L35.8302 71.8334L37.3736 71.9928C38.2228 72.0804 41.8635 72.3742 45.4645 72.6456ZM3.9616 97.6117C3.97445 103.965 7.55488 108.353 13.6769 109.518C16.5836 110.071 106.456 110.073 109.35 109.52C115.502 108.345 119.073 103.978 119.086 97.6117L119.089 95.823H61.5236H3.95789L3.9616 97.6117ZM3.95789 114.452V120.298L4.81001 121.149L5.66213 122L11.8461 121.926L18.0301 121.852L18.7147 121.169C19.3852 120.5 19.4011 120.417 19.4801 117.16L19.5612 113.834H17.2165C15.9271 113.834 14.0008 113.67 12.9357 113.469C10.5043 113.012 6.95329 111.296 5.22607 109.746L3.95789 108.607V114.452ZM118.101 109.56C114.802 112.437 110.757 113.834 105.726 113.834H103.277L103.279 116.486C103.28 119.82 103.553 120.863 104.589 121.494C105.311 121.933 105.868 121.974 111.183 121.974C119.475 121.974 119.16 122.295 119.04 113.972L118.966 108.806L118.101 109.56Z" fill="white"/>
</svg>
