<svg width="122" height="122" viewBox="0 0 122 122" fill="none" xmlns="http://www.w3.org/2000/svg">
<path fill-rule="evenodd" clip-rule="evenodd" d="M55.2029 0.148124C36.1125 2.13309 19.3816 12.5216 9.21805 28.7011C-5.19608 51.6474 -2.47485 82.1123 15.762 101.961C25.8979 112.992 38.4506 119.553 53.53 121.701C56.3646 122.105 65.739 122.098 68.6824 121.69C83.5335 119.633 96.0759 113.087 106.195 102.112C114.526 93.0754 119.849 81.5476 121.7 68.5351C122.1 65.7264 122.1 56.3025 121.7 53.4938C120.289 43.5726 117.149 35.1383 111.932 27.2555C109.713 23.903 107.497 21.1982 104.41 18.0742C94.8713 8.42079 83.097 2.47975 69.5176 0.468048C66.5904 0.0342403 58.1184 -0.154849 55.2029 0.148124ZM65.1923 19.4606C66.1614 19.8292 66.3742 20.5648 66.5188 24.0436C66.6303 26.7291 66.7303 27.3861 67.0865 27.7796C67.4013 28.1269 68.2787 28.3977 70.3079 28.774C73.3336 29.3348 76.5812 30.3347 78.4422 31.2782C80.3257 32.233 80.3772 32.704 79.0858 37.165C77.2014 43.6745 77.1231 43.761 74.2599 42.4822C70.2005 40.6692 66.2604 39.8753 62.2785 40.068C59.4132 40.2065 57.9822 40.6245 56.6714 41.7056C54.9187 43.151 54.3489 45.5019 55.2996 47.3663C56.3626 49.4511 58.6799 50.9566 64.7251 53.4898C69.059 55.3057 72.8432 57.1582 74.4093 58.2301C78.0624 60.7308 80.8354 64.6339 82.0843 69.0328C82.5005 70.4983 82.6207 71.5388 82.62 73.6682C82.6188 77.0035 82.2244 78.6652 80.6951 81.7806C79.7437 83.7186 79.2552 84.3706 77.295 86.3217C74.8536 88.7512 73.0131 89.9724 70.238 91.0047C67.2898 92.1013 66.7281 92.3763 66.4162 92.8758C66.2151 93.1984 66.07 94.7151 65.9908 97.3259C65.8641 101.505 65.7233 102.067 64.6872 102.54C63.9506 102.876 57.188 102.876 56.4514 102.54C55.3922 102.057 55.233 101.465 55.0934 97.4947C55.0151 95.2688 54.8553 93.6393 54.6999 93.4841C54.5558 93.3407 52.8377 92.8992 50.882 92.5034C46.9641 91.7105 43.894 90.7636 41.7843 89.6973C39.9133 88.7514 39.4427 88.188 39.4943 86.9543C39.5425 85.8 41.5903 78.5683 42.085 77.8047C42.6861 76.8772 43.2459 76.9137 45.7147 78.0428C50.2831 80.1316 54.5563 81.1687 58.541 81.1556C62.4783 81.1425 65.2222 80.0705 66.7622 77.9435C69.0134 74.834 67.7771 71.0765 63.7081 68.6609C62.8348 68.1426 60.1534 66.9058 57.7495 65.9129C49.9597 62.6952 47.2488 61.0818 44.2214 57.862C42.2632 55.7794 41.0265 53.5662 40.3791 50.987C39.7677 48.5508 40.0128 43.8441 40.8864 41.2426C42.7102 35.8116 46.1754 32.5147 52.8513 29.8591C54.053 29.3811 55.234 28.7711 55.4759 28.5037C55.8527 28.0871 55.9326 27.4666 56.0353 24.1625C56.1009 22.0424 56.2464 20.1658 56.3581 19.9925C56.47 19.8192 56.7922 19.5842 57.074 19.4704C57.776 19.1872 64.4521 19.1791 65.1923 19.4606Z" fill="white"/>
</svg>
