<svg width="122" height="122" viewBox="0 0 122 122" fill="none" xmlns="http://www.w3.org/2000/svg">
<path fill-rule="evenodd" clip-rule="evenodd" d="M55.7076 0.225459C52.4125 0.540528 51.6271 1.39994 51.2472 5.10759C50.9445 8.06356 50.3612 9.79334 48.9537 11.9102C46.4589 15.6626 42.6788 17.6782 38.1857 17.6515C34.4114 17.6291 31.5537 16.5754 28.6987 14.1538C26.6004 12.3739 25.288 11.9569 23.9771 12.653C22.6432 13.3613 19.481 16.2091 16.1833 19.6715C11.9875 24.0768 11.7637 25.2817 14.5768 28.3206C16.9429 30.8772 18.0935 33.862 18.0935 37.4448C18.0935 44.74 13.0339 49.9255 5.06731 50.7951C2.2435 51.1035 1.31511 51.5337 0.796681 52.7742C-0.29666 55.3906 -0.253041 67.3195 0.856032 69.0121C1.42332 69.8777 3.40907 70.7615 4.79344 70.7643C8.37451 70.7717 12.2609 72.6705 14.7126 75.6105C16.968 78.3145 17.9967 81.4459 17.7803 84.9472C17.5667 88.401 16.6476 90.5648 14.1363 93.5243C11.8273 96.2455 11.8674 97.2696 14.3994 100.289C16.2596 102.507 20.1026 106.36 22.0264 107.935C24.2746 109.775 25.7655 109.717 27.9891 107.704C30.494 105.436 33.4334 104.173 36.6853 103.967C40.6451 103.717 43.8918 104.898 46.6996 107.608C49.3234 110.141 50.5977 113.02 50.893 117.081C51.0751 119.589 51.3757 120.337 52.4755 121.016C54.5017 122.268 66.8228 122.348 68.9216 121.123C70.084 120.444 70.4766 119.533 70.7481 116.883C71.0508 113.927 71.6341 112.197 73.0416 110.08C75.5364 106.328 79.3165 104.312 83.8095 104.339C87.5839 104.362 90.4416 105.415 93.2966 107.837C95.3949 109.617 96.7073 110.034 98.0182 109.338C100.013 108.278 107.937 100.523 108.854 98.731C109.693 97.0945 109.297 95.6991 107.419 93.6699C105.019 91.0777 103.902 88.1329 103.902 84.4016C103.902 80.5886 105.256 77.4882 108.074 74.8531C110.626 72.466 113.246 71.3761 117.09 71.1015C120.691 70.8446 121.366 70.1451 121.765 66.259C122.259 61.4438 121.933 54.1894 121.169 53.0244C120.533 52.0535 119.224 51.4491 117.271 51.2248C112.894 50.7222 110.803 49.7942 108.165 47.1819C105.199 44.2454 103.966 41.0788 104.215 37.0434C104.425 33.6327 105.379 31.3896 107.859 28.4663C110.168 25.745 110.128 24.721 107.596 21.7014C105.736 19.4832 101.893 15.6309 99.9689 14.0561C97.757 12.245 96.1674 12.281 94.1285 14.1876C92.6888 15.5342 90.6375 16.7542 88.6768 17.4301C86.5614 18.1591 82.2881 18.2072 80.3181 17.5242C76.1972 16.0952 72.9007 12.6168 71.6384 8.36528C71.431 7.66651 71.1898 6.11142 71.1023 4.90954C70.919 2.38637 70.6206 1.65447 69.4905 0.95617C68.1073 0.101529 60.9662 -0.277172 55.7076 0.225459ZM65.884 26.2262C79.2727 27.9377 90.914 37.9924 94.7277 51.1388C96.2749 56.4716 96.5306 62.644 95.4297 68.0743C94.7511 71.4216 92.9291 76.2527 91.5535 78.3519C91.1926 78.9025 91.1269 78.8441 83.5071 71.2281L75.8246 63.5494L76.272 62.2491C78.8637 54.7175 77.116 46.3959 71.7425 40.6786C66.4029 34.9979 59.4319 32.6992 51.8209 34.1096C49.286 34.5794 48.6031 35.1571 48.6031 36.8327C48.6031 37.6788 48.891 38.0153 54.0853 43.2399C60.3477 49.5387 59.8492 48.5856 59.2145 53.0492C58.7454 56.3489 58.3996 57.6199 57.9321 57.7629C57.0874 58.0212 53.273 58.6089 51.4615 58.76L49.5499 58.9195L44.1306 53.5373C41.1499 50.5771 38.4112 48.0417 38.0444 47.9035C36.6426 47.3749 35.325 48.4729 34.9181 50.5089C33.405 58.0803 35.6399 65.4749 41.0148 70.6799C44.8442 74.3881 49.3859 76.3714 54.6812 76.6481C57.6559 76.8035 59.8683 76.5261 62.602 75.6555L64.4538 75.0659L72.1411 82.7462C76.3693 86.9703 79.7932 90.5324 79.7501 90.6618C79.6095 91.0834 74.521 93.5324 72.2004 94.2953C58.5478 98.784 43.7654 94.7486 34.4669 83.995C21.7606 69.3 23.3395 47.137 37.9951 34.4678C45.7784 27.7396 55.4242 24.8892 65.884 26.2262Z" fill="white"/>
</svg>
