<svg width="16" height="8" viewBox="0 0 16 8" fill="none" xmlns="http://www.w3.org/2000/svg">
<path fill-rule="evenodd" clip-rule="evenodd" d="M15.936 0.906806C15.8832 0.789589 15.7999 0.700716 15.5077 0.450391C15.0598 0.066477 14.9528 0.0141882 14.6135 0.0132016C14.4312 0.0126683 14.3294 0.0262139 14.2383 0.0631174C14.1535 0.0974345 13.1296 0.951308 11.0569 2.71609L8.00055 5.31846L4.94437 2.71321C2.56709 0.686637 1.85694 0.0959939 1.74751 0.0541308C1.65347 0.0181605 1.53941 0.000215408 1.40359 2.08676e-06C1.08299 -0.000531215 0.924593 0.0774356 0.494091 0.447564C0.191217 0.707915 0.120619 0.784415 0.0641841 0.913418C-0.0209542 1.10788 -0.0213605 1.26179 0.0627765 1.45801C0.126153 1.60581 0.283952 1.74463 3.79125 4.73755C7.84291 8.19496 7.58853 7.99794 8.00071 7.99794C8.41289 7.99794 8.15851 8.19496 12.2103 4.73755C15.7195 1.74313 15.8755 1.60589 15.9388 1.45801C16.0213 1.26518 16.0204 1.09434 15.936 0.906806Z" fill="#828282"/>
</svg>
