<svg width="16" height="9" viewBox="0 0 16 9" fill="none" xmlns="http://www.w3.org/2000/svg">
<path fill-rule="evenodd" clip-rule="evenodd" d="M0.0639813 7.59319C0.116758 7.71041 0.200145 7.79928 0.492263 8.04961C0.940242 8.43352 1.04723 8.48581 1.38653 8.4868C1.56884 8.48733 1.67058 8.47379 1.76172 8.43688C1.84655 8.40257 2.87045 7.54869 4.94313 5.78391L7.99945 3.18154L11.0556 5.78679C13.4329 7.81336 14.1431 8.404 14.2525 8.44587C14.3465 8.48184 14.4606 8.49978 14.5964 8.5C14.917 8.50053 15.0754 8.42256 15.5059 8.05243C15.8088 7.79208 15.8794 7.71558 15.9358 7.58658C16.021 7.39212 16.0214 7.23821 15.9372 7.04199C15.8738 6.89419 15.716 6.75537 12.2088 3.76245C8.15709 0.30504 8.41147 0.502062 7.99929 0.502062C7.58711 0.502062 7.84149 0.30504 3.7897 3.76245C0.280498 6.75687 0.124481 6.89411 0.0612299 7.04199C-0.021281 7.23482 -0.0204368 7.40566 0.0639813 7.59319Z" fill="black"/>
</svg>
