<svg width="25" height="25" viewBox="0 0 25 25" fill="none" xmlns="http://www.w3.org/2000/svg">
<path fill-rule="evenodd" clip-rule="evenodd" d="M23.7966 0.0554132C23.1538 0.236328 22.8185 0.5511 21.3384 2.36356C20.7476 3.08698 19.4232 4.69033 18.3953 5.92657C17.3674 7.16274 14.7995 10.2568 12.6889 12.8022L8.85151 17.4302L8.71494 17.2866C8.63988 17.2077 7.66773 16.0789 6.55466 14.778C5.44165 13.4772 4.44168 12.3379 4.33251 12.246C3.71617 11.7278 2.75035 11.5204 1.95507 11.7357C0.672079 12.0829 -0.157917 13.3198 0.025271 14.6114C0.0986811 15.1292 0.306441 15.613 0.622565 16.0024C1.18509 16.6953 7.08893 23.5491 7.24766 23.6935C7.92113 24.3063 8.93229 24.5393 9.79779 24.2811C10.2224 24.1545 10.8066 23.7724 11.0548 23.4591C11.2144 23.2576 13.5739 19.5963 20.7467 8.41993C21.5923 7.10223 22.7946 5.23627 23.4184 4.27333C24.0421 3.3104 24.6162 2.38433 24.6941 2.21539C25.348 0.797132 24.9097 -0.257885 23.7966 0.0554132Z" fill="#BDBDBD"/>
</svg>
