<svg width="8" height="17" viewBox="0 0 8 17" fill="none" xmlns="http://www.w3.org/2000/svg">
<path fill-rule="evenodd" clip-rule="evenodd" d="M0.906806 0.431121C0.789589 0.483859 0.700717 0.567183 0.450391 0.859084C0.066477 1.30673 0.0141882 1.41364 0.0132017 1.75269C0.0126684 1.93487 0.0262139 2.03653 0.0631175 2.1276C0.0974346 2.21236 0.951309 3.2355 2.71609 5.30664L5.31846 8.36068L2.71321 11.4146C0.686638 13.7901 0.0959946 14.4997 0.0541314 14.6091C0.0181612 14.7031 0.000216056 14.817 2.74115e-06 14.9527C-0.000530546 15.2731 0.0774363 15.4314 0.447565 15.8616C0.707916 16.1642 0.784416 16.2348 0.913419 16.2912C1.10788 16.3762 1.26179 16.3766 1.45801 16.2926C1.60581 16.2292 1.74463 16.0715 4.73755 12.5669C8.19496 8.51821 7.99794 8.7724 7.99794 8.36053C7.99794 7.94865 8.19496 8.20284 4.73755 4.15407C1.74313 0.647477 1.60589 0.491576 1.45801 0.428372C1.26518 0.345922 1.09434 0.346766 0.906806 0.431121Z" fill="#828282"/>
</svg>
